<?xml version="1.0" encoding="UTF-8"?>
<svg version="1.1" xmlns="http://www.w3.org/2000/svg" width="741" height="779">
<path d="M0 0 C244.53 0 489.06 0 741 0 C741 257.07 741 514.14 741 779 C496.47 779 251.94 779 0 779 C0 521.93 0 264.86 0 0 Z " fill="#E8E9E8" transform="translate(0,0)"/>
<path d="M0 0 C5.92764949 2.52775293 11.58824407 5.31465126 17.1875 8.5 C18.75726049 9.38379368 20.32760054 10.26655855 21.8984375 11.1484375 C22.72182617 11.61088867 23.54521484 12.07333984 24.39355469 12.54980469 C28.06471877 14.59239692 31.76201205 16.58552875 35.45825195 18.58227539 C43.56851528 22.96588278 51.57297459 27.4154302 59.34375 32.37890625 C64.48593588 35.87765209 64.48593588 35.87765209 70.37670898 36.75585938 C73.28041986 35.9192015 75.39354826 34.74923388 77.94140625 33.12890625 C78.85470703 32.55462891 79.76800781 31.98035156 80.70898438 31.38867188 C81.65064453 30.78603516 82.59230469 30.18339844 83.5625 29.5625 C85.43789915 28.37487504 87.31416828 27.18862251 89.19140625 26.00390625 C90.43192749 25.21222046 90.43192749 25.21222046 91.69750977 24.40454102 C96.7748745 21.30730008 98.98240542 20.73313798 105 22 C132.71641661 30.45380899 157.53832578 47.91350329 175 71 C175.80050781 72.03511719 176.60101563 73.07023437 177.42578125 74.13671875 C184.46751289 83.46481606 189.79228341 93.56112373 195 104 C195.72703125 102.47632813 195.72703125 102.47632813 196.46875 100.921875 C211.22524356 70.4345428 233.69942391 46.37989353 263.6875 30.625 C265.11195435 29.87512817 265.11195435 29.87512817 266.56518555 29.11010742 C284.87759221 19.72493959 284.87759221 19.72493959 292 21 C294.70376281 22.1127453 297.17667703 23.50783823 299.6875 25 C300.73164062 25.6031604 300.73164062 25.6031604 301.796875 26.21850586 C307.82606203 29.76120842 313.47779221 33.70624945 319 38 C316.53443868 40.76676969 313.84903314 42.34544895 310.609375 44.1171875 C309.51850586 44.71772949 308.42763672 45.31827148 307.30371094 45.93701172 C306.72455933 46.25281189 306.14540771 46.56861206 305.54870605 46.89398193 C303.10856031 48.22484256 300.67490759 49.56737687 298.24078369 50.90921021 C296.99219766 51.59734371 295.74329365 52.28490057 294.49407959 52.97189331 C287.59243293 56.76821591 280.70360558 60.58952701 273.8840332 64.53173828 C269.89080504 66.83921826 265.95706707 69.07734534 261.73046875 70.9296875 C249.25572456 76.69124147 244.73138511 87.84711493 238.73828125 99.65576172 C235.99835823 104.92703496 232.96959249 110.01805275 229.9375 115.125 C224.77028003 123.92094232 219.70877765 132.77110924 214.7097168 141.66357422 C210.65565905 148.86758789 206.52868469 156.02666817 202.3371582 163.15161133 C201.91136475 163.88017334 201.48557129 164.60873535 201.046875 165.359375 C200.67401367 165.99327148 200.30115234 166.62716797 199.91699219 167.28027344 C198.85473706 169.15690963 198.85473706 169.15690963 198 172 C198.9178125 171.14277344 199.835625 170.28554688 200.78125 169.40234375 C206.41644871 164.14851475 212.04365698 158.90321194 217.87890625 153.87109375 C220.79798371 151.29606962 223.64617353 148.64692203 226.5 146 C230.63273866 142.16825169 234.7942127 138.38534716 239.0546875 134.6953125 C244.99585136 129.5176717 250.80099741 124.18346156 256.625 118.875 C259.70309566 116.07242619 262.7930187 113.29032125 265.9375 110.5625 C269.83246482 107.17730563 273.63022661 103.68914728 277.4284668 100.1965332 C284.19164992 93.97943899 291.01964051 87.84031329 297.9453125 81.8046875 C301.99970169 78.24360802 305.994533 74.6158775 310 71 C311.66640851 69.49971321 313.33307353 67.99971128 315 66.5 C315.825 65.7575 316.65 65.015 317.5 64.25 C321.25 60.875 321.25 60.875 325 57.5 C325.82628906 56.75621094 326.65257812 56.01242188 327.50390625 55.24609375 C329.15703343 53.758538 330.81067256 52.27155097 332.46484375 50.78515625 C336.86513065 46.82976408 341.25270376 42.86132802 345.625 38.875 C348.68131949 36.09187108 351.74957248 33.33020197 354.875 30.625 C358.48574222 27.48974647 361.99351412 24.25057078 365.5 21 C373.07641123 13.9896737 373.07641123 13.9896737 376.5625 10.875 C377.43068359 10.09769531 377.43068359 10.09769531 378.31640625 9.3046875 C380 8 380 8 382.15234375 6.9453125 C384.17708177 6.13964245 384.17708177 6.13964245 385 4 C386.25541557 1.48916886 387.50063488 1.12874554 390 0 C387.48172289 8.7868703 384.53020454 17.42037701 381.5625 26.0625 C381.30554352 26.81435577 381.04858704 27.56621155 380.78384399 28.34085083 C377.79064174 37.09543427 374.72750767 45.81813246 371.5078125 54.4921875 C371.22741623 55.25013107 370.94701996 56.00807465 370.65812683 56.78898621 C369.31031692 60.42833125 367.95044833 64.06239506 366.57055664 67.68969727 C366.08182024 69.00002341 365.59343794 70.3104817 365.10546875 71.62109375 C364.45807739 73.32930298 364.45807739 73.32930298 363.79760742 75.07202148 C362.78678991 78.78268401 363.18546856 80.44180352 364.92041016 83.76074219 C365.47414307 84.64487793 365.47414307 84.64487793 366.0390625 85.546875 C366.4513208 86.21855713 366.8635791 86.89023926 367.28833008 87.58227539 C367.94998169 88.65529907 367.94998169 88.65529907 368.625 89.75 C383.1675923 113.97205857 389.3039914 139.17961154 389.80078125 167.26123047 C389.84750989 169.36392913 389.89502792 171.46661037 389.94326782 173.5692749 C390.36047164 192.65651215 390.57856546 211.74900908 390.74894714 230.83987236 C390.87711085 244.92433293 391.10017211 259.00059772 391.44666386 273.0814141 C391.68291709 283.02060317 391.80713676 292.95755461 391.85057735 302.8994323 C391.87966577 308.82368463 391.95743854 314.73760872 392.15786743 320.65874863 C393.35700394 357.64201382 393.35700394 357.64201382 386.13845825 365.62094879 C379.59562016 371.621293 371.59793807 374.92981071 363.31326294 377.80182266 C359.12931122 379.31486773 355.76912874 381.31058852 352.0625 383.75 C343.36197775 388.99857491 334.60541172 394.1518034 325.85400391 399.31494141 C323.08240705 400.9513453 320.3123892 402.59038471 317.54296875 404.23046875 C308.15163257 409.7905262 298.7449371 415.32242714 289.3125 420.8125 C279.65381392 426.434919 270.03259124 432.11835461 260.42358398 437.82519531 C254.53259234 441.32143738 248.63535176 444.80619785 242.72265625 448.265625 C242.1162027 448.6206308 241.50974915 448.9756366 240.88491821 449.34140015 C237.84126306 451.12235838 234.79565915 452.89986335 231.74707031 454.67236328 C225.71518105 458.18667248 219.73628096 461.76378213 213.82421875 465.4765625 C212.6736021 466.19239762 211.52272804 466.90781918 210.37158203 467.62280273 C208.21716915 468.96704574 206.07293351 470.32778496 203.94091797 471.70727539 C202.50256592 472.60047485 202.50256592 472.60047485 201.03515625 473.51171875 C199.78810913 474.30775513 199.78810913 474.30775513 198.51586914 475.11987305 C195.01002787 476.34632213 193.34364146 475.48868938 190 474 C188.26858087 473.08243912 186.56631593 472.10812445 184.89453125 471.0859375 C183.92491455 470.49796387 182.95529785 469.90999023 181.95629883 469.30419922 C180.91884521 468.66756348 179.8813916 468.03092773 178.8125 467.375 C177.13983068 466.35978966 175.46714724 465.34460193 173.79374695 464.33059692 C172.63115865 463.62592654 171.46898355 462.92057402 170.3072052 462.21456909 C164.00426954 458.38625789 157.66035696 454.62834516 151.3125 450.875 C150.1783667 450.20380127 149.0442334 449.53260254 147.87573242 448.84106445 C145.63790189 447.51690342 143.39986952 446.19308343 141.16162109 444.86962891 C138.24902134 443.14725911 135.33726453 441.42347491 132.42578125 439.69921875 C122.13258634 433.606462 111.82093876 427.54559952 101.5 421.5 C87.0549157 413.03863843 72.63906467 404.52872466 58.23828125 395.9921875 C57.65929581 395.64897964 57.08031036 395.30577179 56.48377991 394.9521637 C51.75603278 392.14962158 51.75603278 392.14962158 49.43081665 390.77084351 C43.40722092 387.19911037 37.38278819 383.62906747 31.34130859 380.08764648 C30.03488861 379.32078607 28.73207795 378.5475215 27.44043779 377.75602055 C23.68212021 375.48187811 19.91669132 373.4673586 15.91970062 371.64172363 C2.74406214 365.28546483 2.74406214 365.28546483 -0.14477348 359.84347534 C-1.93859823 353.75077593 -1.55278499 347.49966928 -1.33398438 341.21875 C-1.33489256 339.13120953 -1.34457377 337.04365739 -1.36230469 334.95619202 C-1.38505059 329.30987378 -1.28426547 323.67188379 -1.15960503 318.0271492 C-1.04887356 312.09644938 -1.04941483 306.16570313 -1.03674316 300.23413086 C-0.99997296 290.2664528 -0.89006472 280.3018541 -0.72851562 270.33544922 C-0.50183841 256.33954617 -0.41193956 242.34520272 -0.34737682 228.34775162 C-0.29731463 218.5960529 -0.21476207 208.84458277 -0.1258564 199.09317017 C-0.10449956 196.74460559 -0.08394619 194.39603356 -0.06420708 192.04745483 C-0.00643945 185.33745745 0.07211629 178.62830236 0.18170166 171.91894341 C0.21218311 169.89882312 0.23659913 167.87859924 0.25401306 165.85832405 C0.52228706 136.51417209 7.98130952 106.88184099 25.9609375 83.12304688 C27.57278249 79.82967187 26.35754713 77.14026181 25.29492188 73.75141907 C24.8859668 72.60663338 24.8859668 72.60663338 24.46875 71.4387207 C24.15724503 70.56120651 23.84574005 69.68369232 23.52479553 68.77958679 C23.18661301 67.83783096 22.84843048 66.89607513 22.5 65.92578125 C22.14791977 64.93645096 21.79583954 63.94712067 21.43309021 62.92781067 C20.68047445 60.81392317 19.92635459 58.70057068 19.17086792 56.58770752 C17.60923857 52.21944351 16.05560883 47.8483512 14.5018158 43.47729492 C13.73430057 41.31815797 12.96644947 39.15914039 12.19825745 37.00024414 C9.25163849 28.7175692 6.3240765 20.42880824 3.4375 12.125 C2.89319336 10.57099487 2.89319336 10.57099487 2.33789062 8.9855957 C2.01884766 8.06480225 1.69980469 7.14400879 1.37109375 6.1953125 C1.10224365 5.42203613 0.83339355 4.64875977 0.55639648 3.85205078 C0 2 0 2 0 0 Z " fill="#2C573F" transform="translate(174,168)"/>
<path d="M0 0 C1 2 1 2 -0.07299805 5.65063477 C-0.62798058 7.25032982 -1.19159784 8.84704367 -1.76171875 10.44140625 C-2.21512383 11.73611343 -2.21512383 11.73611343 -2.6776886 13.05697632 C-3.67379182 15.89472936 -4.68073141 18.72851527 -5.6875 21.5625 C-6.37234468 23.51028723 -7.05658593 25.45828673 -7.74023438 27.40649414 C-10.99208312 36.64883962 -14.2990149 45.86875188 -17.70703125 55.0546875 C-17.99003586 55.8202446 -18.27304047 56.5858017 -18.56462097 57.3745575 C-19.88851141 60.95355005 -21.22353129 64.52752688 -22.58081055 68.09399414 C-23.054243 69.36330633 -23.52732773 70.63274828 -24 71.90234375 C-24.4125 72.99023193 -24.825 74.07812012 -25.25 75.19897461 C-26.21858538 78.81635092 -25.77295701 80.52133528 -24.07958984 83.76074219 C-23.71043457 84.35016602 -23.3412793 84.93958984 -22.9609375 85.546875 C-22.5486792 86.21855713 -22.1364209 86.89023926 -21.71166992 87.58227539 C-21.05001831 88.65529907 -21.05001831 88.65529907 -20.375 89.75 C-12.60701166 102.68831696 -6.68009444 116.33270799 -3 131 C-2.75063029 131.97702157 -2.50126059 132.95404314 -2.24433422 133.96067142 C0.30377397 145.12480022 0.40537492 155.93557871 0.34057617 167.34741211 C0.33972824 169.45797208 0.34020828 171.56853294 0.34190369 173.67909241 C0.34275857 179.36405236 0.3252155 185.04881942 0.30418181 190.73373485 C0.28532987 196.69142201 0.28365789 202.6491144 0.28010559 208.60682678 C0.27081003 219.86864713 0.24623015 231.1303793 0.21605712 242.39216095 C0.18243534 255.22175651 0.1660076 268.05135644 0.15097082 280.88098514 C0.11967823 307.25403883 0.06696647 333.62701446 0 360 C-4.00606088 358.49658602 -6.50714371 356.89372829 -9.625 353.9375 C-13.08420957 350.73339438 -16.58276566 347.65157731 -20.25 344.6875 C-24.5645109 341.19567126 -28.79705528 337.62419165 -33 334 C-38.00148256 329.6904061 -43.05354808 325.45880696 -48.1953125 321.31640625 C-50.31427529 319.56634367 -52.37834783 317.79123084 -54.4296875 315.96484375 C-55.01290771 315.45187744 -55.59612793 314.93891113 -56.19702148 314.41040039 C-57.33598186 313.40564211 -58.4661543 312.39081122 -59.58618164 311.36499023 C-62.38468845 308.79957936 -62.38468845 308.79957936 -65.9453125 307.92578125 C-69.05626152 309.55222798 -71.99884637 311.39925513 -74.9375 313.3125 C-81.2497157 317.34467397 -87.6626922 321.1352783 -94.1875 324.8125 C-109.76189212 333.63889355 -125.15965978 342.58810997 -139 354 C-140.04941855 354.84512735 -141.09889898 355.69017788 -142.1484375 356.53515625 C-163.62535862 374.04550142 -179.90075334 394.62784396 -193 419 C-193.33 419 -193.66 419 -194 419 C-193.99032196 417.9684227 -193.98064392 416.9368454 -193.97067261 415.87400818 C-193.8855178 406.09221415 -193.8539051 396.31147242 -193.87302971 386.52931118 C-193.88118403 381.50147699 -193.87129762 376.4751013 -193.81835938 371.44750977 C-193.76784154 366.58386732 -193.76709289 361.72240386 -193.79904556 356.85862923 C-193.80276058 355.01490599 -193.78935329 353.17105615 -193.75750351 351.32760429 C-193.53923086 337.76100419 -196.16409971 329.37767337 -205 319 C-206.2521077 317.52393532 -206.2521077 317.52393532 -207.5295105 316.01805115 C-208.96789371 314.38133162 -210.43640944 312.77060967 -211.93359375 311.1875 C-213.80389736 309.20759448 -215.5233593 307.16671077 -217.25 305.0625 C-231.94631192 288.35299466 -254.25193537 274.67678391 -275 267 C-271.31879788 262.04941784 -267.02059459 258.45397568 -262.21484375 254.609375 C-258.62737146 251.72508753 -255.15731511 248.71151541 -251.6875 245.6875 C-251.05585938 245.13811768 -250.42421875 244.58873535 -249.7734375 244.02270508 C-248.48824965 242.90484581 -247.20325652 241.78676264 -245.91845703 240.66845703 C-229.47215427 226.36532226 -229.47215427 226.36532226 -221 220 C-218.26446034 222.40355186 -216.96398846 224.835119 -215.46875 228.13671875 C-214.99284424 229.17836182 -214.51693848 230.22000488 -214.02661133 231.29321289 C-213.52282959 232.41332764 -213.01904785 233.53344238 -212.5 234.6875 C-211.97752686 235.83404053 -211.45505371 236.98058105 -210.91674805 238.16186523 C-209.272242 241.77206413 -207.63614942 245.38600755 -206 249 C-204.42868865 252.45356696 -202.85454308 255.90580764 -201.27734375 259.35668945 C-200.31236007 261.46855623 -199.35005216 263.58164801 -198.390625 265.69604492 C-197.74287109 267.11687378 -197.74287109 267.11687378 -197.08203125 268.56640625 C-196.70280518 269.40115479 -196.3235791 270.23590332 -195.93286133 271.09594727 C-195.14617763 272.96178476 -195.14617763 272.96178476 -194 274 C-185.29361174 256.15748356 -177.03630806 238.15211842 -169 220 C-168.01 220 -167.02 220 -166 220 C-166.2475 219.35546875 -166.495 218.7109375 -166.75 218.046875 C-167.1283091 213.43623279 -165.07639057 210.28611165 -163 206.25 C-159.39735357 199.00942859 -156.13976809 191.74217113 -153.296875 184.16894531 C-152.61100975 182.41268887 -151.81437505 180.70048261 -151 179 C-150.01 178.67 -149.02 178.34 -148 178 C-147.61070312 178.50789062 -147.22140625 179.01578125 -146.8203125 179.5390625 C-140.15040667 187.74581299 -131.54362181 193.29483205 -121 195 C-106.25466211 196.08112457 -94.46197524 193.70546145 -82.76953125 184.18359375 C-73.28259647 175.37302581 -69.22290634 163.57705379 -68.6875 150.875 C-68.83967587 139.78137889 -72.9305641 130.41820985 -80 122 C-80.6290625 121.22785156 -81.258125 120.45570313 -81.90625 119.66015625 C-83.85518152 117.72115335 -83.85518152 117.72115335 -86.27563477 118.21630859 C-89.35091968 119.10094562 -91.87272072 120.34826044 -94.68359375 121.87890625 C-95.76946777 122.46671875 -96.8553418 123.05453125 -97.97412109 123.66015625 C-99.68849365 124.60181641 -99.68849365 124.60181641 -101.4375 125.5625 C-102.6203676 126.20616649 -103.80347403 126.84939427 -104.98681641 127.4921875 C-112.07788519 131.35332957 -119.10460563 135.3147289 -126.08984375 139.36328125 C-128.83433949 140.90682986 -131.60503427 142.31357281 -134.4375 143.6875 C-140.32933079 146.57106798 -145.99411693 149.80709313 -151.6875 153.0625 C-160.29477209 157.96930933 -168.97315662 162.71546983 -177.75 167.3125 C-178.82725342 167.88170166 -179.90450684 168.45090332 -181.0144043 169.03735352 C-182.01511963 169.55740967 -183.01583496 170.07746582 -184.046875 170.61328125 C-184.93213867 171.07516846 -185.81740234 171.53705566 -186.72949219 172.01293945 C-189 173 -189 173 -192 173 C-177.15757766 159.05913886 -177.15757766 159.05913886 -171.0859375 153.8359375 C-168.17636714 151.2750797 -165.34158899 148.63583399 -162.5 146 C-158.36728321 142.16822916 -154.20578628 138.38534628 -149.9453125 134.6953125 C-144.00414864 129.5176717 -138.19900259 124.18346156 -132.375 118.875 C-129.29690434 116.07242619 -126.2069813 113.29032125 -123.0625 110.5625 C-119.16753518 107.17730563 -115.36977339 103.68914728 -111.5715332 100.1965332 C-104.80835008 93.97943899 -97.98035949 87.84031329 -91.0546875 81.8046875 C-87.00029831 78.24360802 -83.005467 74.6158775 -79 71 C-77.33359149 69.49971321 -75.66692647 67.99971128 -74 66.5 C-73.175 65.7575 -72.35 65.015 -71.5 64.25 C-67.75 60.875 -67.75 60.875 -64 57.5 C-63.17371094 56.75621094 -62.34742188 56.01242188 -61.49609375 55.24609375 C-59.84296657 53.758538 -58.18932744 52.27155097 -56.53515625 50.78515625 C-52.13486935 46.82976408 -47.74729624 42.86132802 -43.375 38.875 C-40.31868051 36.09187108 -37.25042752 33.33020197 -34.125 30.625 C-30.51425778 27.48974647 -27.00648588 24.25057078 -23.5 21 C-15.92358877 13.9896737 -15.92358877 13.9896737 -12.4375 10.875 C-11.56931641 10.09769531 -11.56931641 10.09769531 -10.68359375 9.3046875 C-9 8 -9 8 -6.8515625 6.9453125 C-4.45466712 5.7215811 -4.11963808 4.38856123 -3 2 C-1.515 1.01 -1.515 1.01 0 0 Z " fill="#4B7659" transform="translate(563,168)"/>
<path d="M0 0 C5.92764949 2.52775293 11.58824407 5.31465126 17.1875 8.5 C18.75726049 9.38379368 20.32760054 10.26655855 21.8984375 11.1484375 C22.72182617 11.61088867 23.54521484 12.07333984 24.39355469 12.54980469 C28.06471877 14.59239692 31.76201205 16.58552875 35.45825195 18.58227539 C43.56851528 22.96588278 51.57297459 27.4154302 59.34375 32.37890625 C64.48593588 35.87765209 64.48593588 35.87765209 70.37670898 36.75585938 C73.28041986 35.9192015 75.39354826 34.74923388 77.94140625 33.12890625 C78.85470703 32.55462891 79.76800781 31.98035156 80.70898438 31.38867188 C81.65064453 30.78603516 82.59230469 30.18339844 83.5625 29.5625 C85.43789915 28.37487504 87.31416828 27.18862251 89.19140625 26.00390625 C90.43192749 25.21222046 90.43192749 25.21222046 91.69750977 24.40454102 C96.7748745 21.30730008 98.98240542 20.73313798 105 22 C132.71641661 30.45380899 157.53832578 47.91350329 175 71 C175.80050781 72.03511719 176.60101563 73.07023437 177.42578125 74.13671875 C184.46751289 83.46481606 189.79228341 93.56112373 195 104 C195.72703125 102.47632813 195.72703125 102.47632813 196.46875 100.921875 C211.22524356 70.4345428 233.69942391 46.37989353 263.6875 30.625 C265.11195435 29.87512817 265.11195435 29.87512817 266.56518555 29.11010742 C284.87759221 19.72493959 284.87759221 19.72493959 292 21 C294.70376281 22.1127453 297.17667703 23.50783823 299.6875 25 C300.73164062 25.6031604 300.73164062 25.6031604 301.796875 26.21850586 C307.82606203 29.76120842 313.47779221 33.70624945 319 38 C316.53443868 40.76676969 313.84903314 42.34544895 310.609375 44.1171875 C309.51850586 44.71772949 308.42763672 45.31827148 307.30371094 45.93701172 C306.72455933 46.25281189 306.14540771 46.56861206 305.54870605 46.89398193 C303.10856031 48.22484256 300.67490759 49.56737687 298.24078369 50.90921021 C296.99219766 51.59734371 295.74329365 52.28490057 294.49407959 52.97189331 C287.59243293 56.76821591 280.70360558 60.58952701 273.8840332 64.53173828 C269.89080504 66.83921826 265.95706707 69.07734534 261.73046875 70.9296875 C249.25572456 76.69124147 244.73138511 87.84711493 238.73828125 99.65576172 C235.99835823 104.92703496 232.96959249 110.01805275 229.9375 115.125 C224.76893841 123.92322612 219.70730306 132.77632047 214.70532227 141.67016602 C210.70328671 148.77934522 206.63617818 155.8483537 202.51293945 162.88793945 C200.19430886 166.86279839 198.00445422 170.85353098 196 175 C192.2497654 174.41077876 189.42186358 173.34790162 186.10546875 171.515625 C185.16203613 170.99911377 184.21860352 170.48260254 183.24658203 169.95043945 C182.23708496 169.38929443 181.22758789 168.82814941 180.1875 168.25 C178.02225416 167.06098166 175.85688608 165.87218589 173.69140625 164.68359375 C172.58297363 164.07241699 171.47454102 163.46124023 170.33251953 162.83154297 C165.112461 159.9626141 159.8673402 157.14043229 154.625 154.3125 C147.8493281 150.64881868 141.09509959 146.95205144 134.375 143.1875 C125.74341126 138.35698709 117.01027806 133.71930618 108.27716064 129.07608032 C99.2013912 124.25026339 90.15037507 119.38405362 81.13696289 114.44238281 C75.1373577 111.15581188 69.11571994 107.91317621 63.07910156 104.69506836 C60.83126895 103.48879193 58.58959653 102.27096008 56.35449219 101.04125977 C51.60950681 98.43094732 46.93495299 95.9064665 41.92578125 93.83984375 C33.70745062 90.25114923 29.48467391 86.36126209 26.09619141 77.95214844 C24.65061533 73.87919369 23.33528562 69.77498604 22.0803833 65.6394043 C20.22889387 59.5753075 18.12854662 53.61323875 15.98046875 47.6484375 C15.62321213 46.65610611 15.26595551 45.66377472 14.89787292 44.64137268 C14.16938995 42.62024737 13.44042007 40.59929749 12.71096802 38.57852173 C0 3.27678622 0 3.27678622 0 0 Z " fill="#5C8B6A" transform="translate(174,168)"/>
<path d="M0 0 C2.73553966 2.40355186 4.03601154 4.835119 5.53125 8.13671875 C6.24510864 9.69918335 6.24510864 9.69918335 6.97338867 11.29321289 C7.47717041 12.41332764 7.98095215 13.53344238 8.5 14.6875 C9.02247314 15.83404053 9.54494629 16.98058105 10.08325195 18.16186523 C11.727758 21.77206413 13.36385058 25.38600755 15 29 C16.57131135 32.45356696 18.14545692 35.90580764 19.72265625 39.35668945 C20.68763993 41.46855623 21.64994784 43.58164801 22.609375 45.69604492 C23.25712891 47.11687378 23.25712891 47.11687378 23.91796875 48.56640625 C24.48680786 49.81852905 24.48680786 49.81852905 25.06713867 51.09594727 C25.85382237 52.96178476 25.85382237 52.96178476 27 54 C35.70638826 36.15748356 43.96369194 18.15211842 52 0 C56.40612159 1.62124218 59.28715196 3.82656678 62.625 7.0625 C66.42042726 10.64243062 70.24638447 14.09901155 74.3125 17.375 C78.72691365 20.93316962 83.03619894 24.59095936 87.3125 28.3125 C88.26189453 29.13826538 88.26189453 29.13826538 89.23046875 29.98071289 C90.51574909 31.09897848 91.80090508 32.21738702 93.0859375 33.3359375 C103.40746278 42.33005079 103.40746278 42.33005079 114 51 C120.49705082 56.14040726 126.73718933 61.57901708 133 67 C133.65291016 67.56509277 134.30582031 68.13018555 134.97851562 68.71240234 C137.57438868 70.96009477 140.16977483 73.20833725 142.76245117 75.4597168 C146.82766253 78.98957316 150.90832256 82.50085663 155 86 C151.72968358 89.45397549 148.57359565 92.11505745 144.5 94.5625 C143.67628906 95.06003784 143.67628906 95.06003784 142.8359375 95.56762695 C137.60937795 98.69776482 132.29846484 101.68148996 127 104.6875 C111.37187645 113.56955899 95.89818421 122.5404154 82 134 C80.95058145 134.84512735 79.90110102 135.69017788 78.8515625 136.53515625 C57.37464138 154.04550142 41.09924666 174.62784396 28 199 C27.67 199 27.34 199 27 199 C27.00967804 197.9684227 27.01935608 196.9368454 27.02932739 195.87400818 C27.1144822 186.09221415 27.1460949 176.31147242 27.12697029 166.52931118 C27.11881597 161.50147699 27.12870238 156.4751013 27.18164062 151.44750977 C27.23215846 146.58386732 27.23290711 141.72240386 27.20095444 136.85862923 C27.19723942 135.01490599 27.21064671 133.17105615 27.24249649 131.32760429 C27.46076914 117.76100419 24.83590029 109.37767337 16 99 C14.7478923 97.52393532 14.7478923 97.52393532 13.4704895 96.01805115 C12.03210629 94.38133162 10.56359056 92.77060967 9.06640625 91.1875 C7.19610264 89.20759448 5.4766407 87.16671077 3.75 85.0625 C-10.94631192 68.35299466 -33.25193537 54.67678391 -54 47 C-50.31879788 42.04941784 -46.02059459 38.45397568 -41.21484375 34.609375 C-37.62737146 31.72508753 -34.15731511 28.71151541 -30.6875 25.6875 C-30.05585938 25.13811768 -29.42421875 24.58873535 -28.7734375 24.02270508 C-27.48824965 22.90484581 -26.20325652 21.78676264 -24.91845703 20.66845703 C-8.47215427 6.36532226 -8.47215427 6.36532226 0 0 Z " fill="#7FB18A" transform="translate(342,388)"/>
<path d="M0 0 C3.97173847 0.42845809 6.33780245 1.68543712 9.5 4.0625 C18.11026918 10.28451934 27.19379644 15.57021345 36.45996094 20.73999023 C46.01422696 26.07494138 55.20192618 31.47346917 64 38 C65.30437464 38.94444266 66.60908238 39.88842539 67.9140625 40.83203125 C76.46591438 47.07142354 84.38128078 53.64804266 92 61 C92.89976562 61.83660156 93.79953125 62.67320312 94.7265625 63.53515625 C107.61581309 75.84866222 128.56857578 98.22027795 130.24050903 116.65132141 C130.23606781 117.59952255 130.23162659 118.54772369 130.22705078 119.5246582 C130.22682419 121.14577263 130.22682419 121.14577263 130.22659302 122.79963684 C130.21627045 123.9550145 130.20594788 125.11039215 130.1953125 126.30078125 C130.1924826 127.49229294 130.18965271 128.68380463 130.18673706 129.91142273 C130.17555433 133.71188456 130.1504528 137.51210956 130.125 141.3125 C130.11496775 143.89127263 130.10584233 146.47004897 130.09765625 149.04882812 C130.0756212 155.36596603 130.04216232 161.68296609 130 168 C126.08693848 167.29548617 123.39403296 166.27174988 119.9921875 164.18359375 C119.01934814 163.59239746 118.04650879 163.00120117 117.04418945 162.39208984 C115.99835693 161.7470752 114.95252441 161.10206055 113.875 160.4375 C112.1956379 159.41551531 110.51626007 158.39355566 108.83607483 157.3729248 C107.66785066 156.66294015 106.50016429 155.95206991 105.33299255 155.24035645 C99.02582679 151.39600112 92.67138106 147.63318451 86.3125 143.875 C85.17844727 143.20388184 84.04439453 142.53276367 82.87597656 141.84130859 C80.63807889 140.51704214 78.39996548 139.19314017 76.16162109 137.86962891 C73.24902134 136.14725911 70.33726453 134.42347491 67.42578125 132.69921875 C57.13258634 126.606462 46.82093876 120.54559952 36.5 114.5 C20.87891556 105.34978385 5.29416472 96.13905082 -10.27880859 86.90722656 C-27.80368277 76.51848648 -45.35582981 66.18505999 -63 56 C-62.17236628 51.84509518 -60.68960488 50.6030823 -57.3125 48 C-56.31476563 47.21367188 -55.31703125 46.42734375 -54.2890625 45.6171875 C-53.4851709 44.98441895 -53.4851709 44.98441895 -52.66503906 44.33886719 C-49.77205487 42.01260248 -46.98805791 39.5609836 -44.1875 37.125 C-39.49827593 33.0664224 -34.71923109 29.16723875 -29.8125 25.375 C-24.53514323 21.29259905 -19.57563879 16.97672622 -14.68359375 12.43359375 C-10.94514752 9.04341617 -7.04677603 5.88189173 -3.1171875 2.71484375 C-1.13793226 1.17273924 -1.13793226 1.17273924 0 0 Z " fill="#17402E" transform="translate(239,475)"/>
<path d="M0 0 C2.29412807 0.80641588 3.56295745 1.73870253 5.36669922 3.35668945 C5.97400879 3.89374512 6.58131836 4.43080078 7.20703125 4.98413086 C8.16585205 5.84917236 8.16585205 5.84917236 9.14404297 6.73168945 C10.49585693 7.92819001 11.84872748 9.12349784 13.20263672 10.31762695 C13.86505371 10.90382813 14.5274707 11.4900293 15.20996094 12.09399414 C17.66249622 14.24004249 20.17432073 16.30555215 22.70654297 18.35668945 C26.70893542 21.59898364 30.65741282 24.89571933 34.58154297 28.23168945 C39.46718496 32.38161124 44.39385325 36.47529429 49.36669922 40.52075195 C51.29650269 42.09236168 53.22037716 43.67126402 55.14013672 45.25512695 C56.13142578 46.07239258 57.12271484 46.8896582 58.14404297 47.73168945 C59.04251953 48.47418945 59.94099609 49.21668945 60.86669922 49.98168945 C62.9531653 51.75233739 62.9531653 51.75233739 65.08154297 52.73168945 C65.08154297 53.39168945 65.08154297 54.05168945 65.08154297 54.73168945 C63.19509062 56.01168034 61.24085567 57.19197428 59.26513672 58.3293457 C58.66214752 58.67942184 58.05915833 59.02949799 57.43789673 59.3901825 C55.4687614 60.53159707 53.49392988 61.66276086 51.51904297 62.79418945 C50.16561277 63.57688136 48.81266657 64.36041078 47.46020508 65.14477539 C44.82207137 66.67445308 42.18237899 68.20137903 39.54150391 69.72631836 C35.71949619 71.94152944 31.92202501 74.19246009 28.14404297 76.48168945 C19.44352072 81.73026436 10.68695468 86.88349285 1.93554688 92.04663086 C-0.83604998 93.68303475 -3.60606784 95.32207416 -6.37548828 96.9621582 C-15.76682446 102.52221565 -25.17351993 108.05411659 -34.60595703 113.54418945 C-44.26236668 119.16528332 -53.8809438 124.8480036 -63.48828125 130.55249023 C-73.09599297 136.25351364 -82.72916263 141.91031442 -92.37353516 147.54907227 C-98.11760508 150.90875615 -103.85315331 154.28146366 -109.56689453 157.69262695 C-110.59065186 158.30275635 -111.61440918 158.91288574 -112.66918945 159.54150391 C-114.58043342 160.68214905 -116.48956946 161.82633613 -118.39624023 162.97460938 C-119.65053833 163.72254761 -119.65053833 163.72254761 -120.93017578 164.4855957 C-122.02011841 165.14023804 -122.02011841 165.14023804 -123.13208008 165.80810547 C-124.91845703 166.73168945 -124.91845703 166.73168945 -126.91845703 166.73168945 C-126.33093495 162.28657726 -125.19714655 158.57898228 -123.43408203 154.4621582 C-122.91740967 153.25551514 -122.4007373 152.04887207 -121.8684082 150.80566406 C-121.3027305 149.5097475 -120.73605663 148.21426539 -120.16845703 146.91918945 C-119.88144928 146.25984406 -119.59444153 145.60049866 -119.29873657 144.9211731 C-111.44087234 126.91568368 -102.75887744 109.14730129 -91.91845703 92.73168945 C-91.35787598 91.8725293 -90.79729492 91.01336914 -90.21972656 90.12817383 C-79.42514733 73.60043097 -68.64385578 57.31601375 -55.00048828 42.98950195 C-52.8947322 40.915552 -52.8947322 40.915552 -51.91845703 38.73168945 C-51.25845703 38.73168945 -50.59845703 38.73168945 -49.91845703 38.73168945 C-49.67482422 38.16192383 -49.43119141 37.5921582 -49.18017578 37.00512695 C-45.64684134 30.63856149 -38.9940474 25.62022063 -33.42626953 21.02075195 C-31.89439447 19.75667545 -31.89439447 19.75667545 -30.55297852 18.29077148 C-28.87348543 16.68879346 -27.27357874 15.6395191 -25.25830078 14.49731445 C-24.5514917 14.09101807 -23.84468262 13.68472168 -23.11645508 13.26611328 C-22.37049072 12.84225342 -21.62452637 12.41839355 -20.85595703 11.98168945 C-14.92281046 8.57635562 -9.29388275 5.04374891 -3.89892578 0.8137207 C-1.91845703 -0.26831055 -1.91845703 -0.26831055 0 0 Z " fill="#335F44" transform="translate(497.91845703125,475.268310546875)"/>
<path d="M0 0 C5.92764949 2.52775293 11.58824407 5.31465126 17.1875 8.5 C18.75726049 9.38379368 20.32760054 10.26655855 21.8984375 11.1484375 C22.72182617 11.61088867 23.54521484 12.07333984 24.39355469 12.54980469 C28.06408256 14.59204294 31.76074207 16.58481956 35.45629883 18.58129883 C43.4773716 22.91647646 51.32401731 27.36747234 59.0390625 32.2265625 C62.08762894 34.05248488 65.18052027 35.63199324 68.375 37.1875 C75.62289665 40.72754213 82.60629893 44.67323845 89.61230469 48.66748047 C95.06628212 51.77584152 100.5315885 54.86059386 106.02734375 57.89453125 C106.61913925 58.22154022 107.21093475 58.54854919 107.82066345 58.88546753 C110.68658214 60.46844021 113.55425011 62.04803968 116.42456055 63.62304688 C118.55599733 64.79995162 120.68031433 65.98984785 122.79711914 67.19287109 C124.98361516 68.42653552 127.19271941 69.62075566 129.41967773 70.77978516 C138.23530614 75.63969099 142.2812149 80.87425514 146.8125 89.75 C147.47669459 90.98782187 148.14450687 92.22370843 148.81567383 93.45776367 C150.20386359 96.01660442 151.57636693 98.5829509 152.93847656 101.15576172 C155.88874723 106.6968251 159.03644873 112.12362009 162.17605591 117.55880737 C167.46822918 126.73464351 172.67625733 135.95853229 177.875 145.1875 C183.13673822 154.52639662 188.52151997 163.7867548 194 173 C191 174 191 174 188.8371582 173.12646484 C188.00015381 172.65934082 187.16314941 172.1922168 186.30078125 171.7109375 C185.35090332 171.18798096 184.40102539 170.66502441 183.42236328 170.1262207 C182.3961084 169.54831787 181.36985352 168.97041504 180.3125 168.375 C178.12907755 167.1676589 175.94547881 165.96063659 173.76171875 164.75390625 C172.64071777 164.13016113 171.5197168 163.50641602 170.36474609 162.86376953 C165.1412789 159.97043413 159.88177563 157.14470293 154.625 154.3125 C147.84912296 150.64920517 141.09509399 146.95204831 134.375 143.1875 C125.74341126 138.35698709 117.01027806 133.71930618 108.27716064 129.07608032 C99.2013912 124.25026339 90.15037507 119.38405362 81.13696289 114.44238281 C75.1373577 111.15581188 69.11571994 107.91317621 63.07910156 104.69506836 C60.83126895 103.48879193 58.58959653 102.27096008 56.35449219 101.04125977 C51.60950681 98.43094732 46.93495299 95.9064665 41.92578125 93.83984375 C33.70745062 90.25114923 29.48467391 86.36126209 26.09619141 77.95214844 C24.65061533 73.87919369 23.33528562 69.77498604 22.0803833 65.6394043 C20.22889387 59.5753075 18.12854662 53.61323875 15.98046875 47.6484375 C15.62321213 46.65610611 15.26595551 45.66377472 14.89787292 44.64137268 C14.16938995 42.62024737 13.44042007 40.59929749 12.71096802 38.57852173 C0 3.27678622 0 3.27678622 0 0 Z " fill="#7EAE89" transform="translate(174,168)"/>
<path d="M0 0 C4.89969502 1.46122292 9.19040855 3.57417146 13.68359375 5.9921875 C14.6080127 6.48541504 15.53243164 6.97864258 16.48486328 7.48681641 C41.0422303 20.83201309 61.20846915 38.89771492 76.74609375 62.1171875 C77.27535965 62.83786911 77.80462555 63.55855072 78.34992981 64.30107117 C80.17236932 67.97700172 80.18606466 71.2901251 80.1784668 75.30395508 C80.19375427 76.51936981 80.19375427 76.51936981 80.20935059 77.75933838 C80.23944804 80.42686914 80.24874147 83.0940406 80.2578125 85.76171875 C80.27466161 87.61546519 80.29281216 89.46920023 80.31221008 91.32292175 C80.35969103 96.19396398 80.38951274 101.06495994 80.41564941 105.93615723 C80.44546451 110.91000504 80.4919916 115.8836935 80.53710938 120.85742188 C80.62312084 130.61059369 80.69047577 140.36379832 80.74609375 150.1171875 C81.29363815 149.15265152 81.84118256 148.18811554 82.40531921 147.1943512 C83.13172192 145.91802436 83.8581913 144.64173546 84.5847168 143.36547852 C84.9446447 142.73103065 85.3045726 142.09658279 85.67540741 141.44290924 C98.8668587 118.29205586 118.18920624 97.65467947 139.74609375 82.1171875 C140.69718018 81.43148682 140.69718018 81.43148682 141.66748047 80.73193359 C151.06523225 74.0166064 160.77904891 67.9444488 170.74609375 62.1171875 C171.67035156 61.5190625 172.59460938 60.9209375 173.546875 60.3046875 C174.63548828 59.716875 174.63548828 59.716875 175.74609375 59.1171875 C176.40609375 59.4471875 177.06609375 59.7771875 177.74609375 60.1171875 C177.24158691 60.58616455 176.73708008 61.0551416 176.21728516 61.53833008 C173.93229844 63.66566798 171.65166144 65.79761337 169.37109375 67.9296875 C168.57703125 68.66767578 167.78296875 69.40566406 166.96484375 70.16601562 C166.20429688 70.87822266 165.44375 71.59042969 164.66015625 72.32421875 C163.95842285 72.9788208 163.25668945 73.63342285 162.53369141 74.30786133 C160.55889259 76.19195103 160.55889259 76.19195103 158.74609375 79.1171875 C158.08609375 79.1171875 157.42609375 79.1171875 156.74609375 79.1171875 C156.50375 79.68308594 156.26140625 80.24898437 156.01171875 80.83203125 C154.50068522 83.56028624 152.66865899 85.43877998 150.49609375 87.6796875 C132.88381717 106.51472099 119.16235891 129.63841005 106.74609375 152.1171875 C106.26817383 152.98118164 105.79025391 153.84517578 105.29785156 154.73535156 C98.94710283 166.31908375 93.24435925 178.12618609 87.99609375 190.2421875 C87.47023682 191.44609131 86.94437988 192.64999512 86.40258789 193.89038086 C85.92297607 195.01968018 85.44336426 196.14897949 84.94921875 197.3125 C84.52286133 198.31297363 84.09650391 199.31344727 83.65722656 200.34423828 C82.74405213 203.12340097 82.55917089 205.21590614 82.74609375 208.1171875 C81.42609375 208.4471875 80.10609375 208.7771875 78.74609375 209.1171875 C78.76941017 208.13025406 78.76941017 208.13025406 78.79319763 207.12338257 C78.94929678 200.21176037 79.05414453 193.30064683 79.13061523 186.38769531 C79.16559618 183.81554796 79.21319812 181.24353752 79.27416992 178.671875 C79.96941635 158.23959891 79.96941635 158.23959891 71.74609375 140.1171875 C70.88072883 138.68615378 70.01714791 137.25403797 69.15625 135.8203125 C68.38355267 134.66263227 67.60119941 133.51132952 66.80859375 132.3671875 C66.38457275 131.74432861 65.96055176 131.12146973 65.52368164 130.47973633 C59.29237046 121.4280231 52.24318 113.14189193 44.74609375 105.1171875 C43.94816406 104.25351562 43.15023437 103.38984375 42.328125 102.5 C34.54245818 94.37275324 25.80580573 87.7518133 16.74609375 81.1171875 C15.82699219 80.4365625 14.90789062 79.7559375 13.9609375 79.0546875 C4.65252792 72.34144386 -5.407971 66.71269792 -15.37890625 61.0546875 C-26.29768613 54.84524624 -36.85903692 48.15947735 -47.25390625 41.1171875 C-46.76965812 36.88485884 -44.48494662 35.16177117 -41.37890625 32.4296875 C-40.88422852 31.99180908 -40.38955078 31.55393066 -39.87988281 31.1027832 C-35.77349354 27.49569649 -31.54171318 24.0459964 -27.2890625 20.61328125 C-22.97340356 17.06411 -18.76525629 13.39529122 -14.55566406 9.72143555 C-13.35901598 8.67765685 -12.15747574 7.63945545 -10.95068359 6.60742188 C-9.84132811 5.63310449 -8.76114131 4.62426598 -7.71728516 3.58007812 C-5.09360183 1.06148109 -3.67603453 0.1323902 0 0 Z " fill="#588A67" transform="translate(289.25390625,434.8828125)"/>
<path d="M0 0 C7.44823433 3.38961562 12.04814844 12.65963697 14.95703125 19.890625 C18.2901517 28.93018726 17.70454696 38.77459021 14.95703125 47.890625 C14.72371094 48.69242187 14.49039063 49.49421875 14.25 50.3203125 C10.55030162 61.16600365 1.69639832 69.84534238 -8.3671875 75.10546875 C-18.93595878 80.01426996 -32.56503457 80.97074228 -43.671875 77 C-51.07283648 73.53727667 -57.70274422 69.09683189 -63.04296875 62.890625 C-63.04296875 62.230625 -63.04296875 61.570625 -63.04296875 60.890625 C-66.19051644 62.46439885 -66.62344957 65.15210186 -67.9765625 68.33984375 C-68.25516617 68.99008011 -68.53376984 69.64031647 -68.82081604 70.31025696 C-69.71361252 72.39694605 -70.59738147 74.48731074 -71.48046875 76.578125 C-72.36160636 78.65035418 -73.24462694 80.72175937 -74.12940979 82.79243469 C-74.67953758 84.08140376 -75.22731387 85.37137991 -75.77232361 86.66252136 C-77.00313578 89.55983382 -78.29223778 92.3695488 -79.74633789 95.16333008 C-81.27445783 97.80337999 -81.27445783 97.80337999 -80.85546875 100.640625 C-80.16478316 103.05208201 -80.16478316 103.05208201 -78.04296875 104.890625 C-80.21171127 104.38458508 -82.04264502 103.89078687 -84.04296875 102.890625 C-84.20913696 103.42810364 -84.37530518 103.96558228 -84.54650879 104.51934814 C-86.43112649 110.41199141 -88.76584233 115.96337948 -91.38671875 121.5625 C-91.79708374 122.44794495 -92.20744873 123.33338989 -92.63024902 124.2456665 C-93.491919 126.10218555 -94.35592405 127.95762245 -95.22216797 129.81201172 C-96.54460194 132.64412262 -97.85878404 135.47995332 -99.171875 138.31640625 C-100.01384032 140.12782856 -100.85627209 141.93903415 -101.69921875 143.75 C-102.08992554 144.59278503 -102.48063232 145.43557007 -102.88317871 146.30389404 C-104.75432359 150.30100699 -106.66697271 154.16042454 -109.04296875 157.890625 C-111.65040026 154.68745905 -113.34864251 151.38261262 -115.08203125 147.640625 C-115.36442154 147.03377365 -115.64681183 146.4269223 -115.9377594 145.80168152 C-116.5405418 144.50415986 -117.14109288 143.20559965 -117.73959351 141.90609741 C-118.67364889 139.87829361 -119.61416934 137.85359117 -120.5559082 135.8293457 C-123.381255 129.74290075 -126.17034334 123.64428313 -128.859375 117.49609375 C-129.47014893 116.10487305 -129.47014893 116.10487305 -130.09326172 114.68554688 C-130.83532214 112.98412882 -131.56788617 111.27852815 -132.28955078 109.56835938 C-133.1292148 107.63984074 -134.07592959 105.75852624 -135.04296875 103.890625 C-136.52796875 103.395625 -136.52796875 103.395625 -138.04296875 102.890625 C-137.72948486 102.06316772 -137.72948486 102.06316772 -137.40966797 101.21899414 C-136.91390351 98.07112086 -137.81560337 96.50116756 -139.17578125 93.63671875 C-139.65273438 92.61642578 -140.1296875 91.59613281 -140.62109375 90.54492188 C-141.1315625 89.48337891 -141.64203125 88.42183594 -142.16796875 87.328125 C-143.14986308 85.24354775 -144.13163454 83.15891262 -145.11328125 81.07421875 C-145.8407959 79.54063721 -145.8407959 79.54063721 -146.58300781 77.97607422 C-148.03748484 74.90221457 -149.48293166 71.82489365 -150.91015625 68.73828125 C-151.32120605 67.85277588 -151.73225586 66.96727051 -152.15576172 66.05493164 C-153.04296875 63.890625 -153.04296875 63.890625 -153.04296875 61.890625 C-153.70296875 61.560625 -154.36296875 61.230625 -155.04296875 60.890625 C-154.71683594 60.39433594 -154.39070313 59.89804687 -154.0546875 59.38671875 C-149.80097232 52.77401108 -146.85361797 46.83498735 -146.04296875 38.890625 C-141.9330831 40.15140705 -138.35891272 41.67966341 -134.63671875 43.82421875 C-133.64542969 44.39076172 -132.65414063 44.95730469 -131.6328125 45.54101562 C-130.61316406 46.13076172 -129.59351563 46.72050781 -128.54296875 47.328125 C-125.55740956 49.04359485 -122.57031406 50.75562961 -119.57421875 52.45263672 C-117.60533534 53.57114784 -115.64952847 54.71268965 -113.69921875 55.86328125 C-110.17467113 57.22645187 -108.66406096 57.02330964 -105.04296875 55.890625 C-101.70054496 54.32048825 -98.50358184 52.52516234 -95.29296875 50.703125 C-93.33520575 49.61225706 -91.37684592 48.52245971 -89.41796875 47.43359375 C-87.87109375 46.57000244 -87.87109375 46.57000244 -86.29296875 45.68896484 C-79.5876782 41.97869064 -72.81458725 38.39235375 -66.05175781 34.78833008 C-60.37127578 31.74394396 -54.8102148 28.57379078 -49.30371094 25.22607422 C-46.13083319 23.3518149 -42.86314341 21.73420348 -39.54296875 20.140625 C-33.50685715 17.18335986 -27.59703143 14.04609851 -21.73046875 10.765625 C-20.9729834 10.34337646 -20.21549805 9.92112793 -19.43505859 9.48608398 C-16.14152951 7.64477714 -12.86246122 5.78551675 -9.6015625 3.88671875 C-8.14943359 3.05333984 -8.14943359 3.05333984 -6.66796875 2.203125 C-5.44980469 1.48576172 -5.44980469 1.48576172 -4.20703125 0.75390625 C-2.04296875 -0.109375 -2.04296875 -0.109375 0 0 Z " fill="#5A8767" transform="translate(478.04296875,285.109375)"/>
<path d="M0 0 C0.82914917 0.00187317 1.65829834 0.00374634 2.51257324 0.00567627 C23.83995766 0.10934609 43.36990076 3.43488437 63.8125 9.375 C64.92353088 9.6975174 64.92353088 9.6975174 66.05700684 10.02655029 C68.18143785 10.65072412 70.30042479 11.2903834 72.41796875 11.9375 C73.6402417 12.31003906 74.86251465 12.68257812 76.12182617 13.06640625 C79.95571602 14.49853738 83.11527579 16.28073541 86.625 18.375 C88.41989049 19.16621703 90.23105536 19.92252808 92.0625 20.625 C92.92746094 20.96015625 93.79242188 21.2953125 94.68359375 21.640625 C95.32425781 21.88296875 95.96492187 22.1253125 96.625 22.375 C96.625 22.705 96.625 23.035 96.625 23.375 C95.93019531 23.54773438 95.23539063 23.72046875 94.51953125 23.8984375 C59.46146959 33.58494883 29.56437876 57.60358619 10.625 88.375 C8.65146237 91.9463824 6.83275864 95.581873 5.12231445 99.28613281 C3.61772264 102.5376274 2.24252634 104.94160058 -0.375 107.375 C-0.75084229 106.57618408 -0.75084229 106.57618408 -1.13427734 105.76123047 C-6.62832263 94.18262346 -12.3395484 83.38576051 -20.375 73.375 C-20.85227539 72.77961426 -21.32955078 72.18422852 -21.82128906 71.57080078 C-41.16297274 47.72445788 -65.5779047 33.20584154 -94.375 23.375 C-81.2451662 12.30205922 -60.10882006 7.66734947 -43.6875 4.125 C-42.98890869 3.97385742 -42.29031738 3.82271484 -41.57055664 3.66699219 C-27.75309635 0.87990743 -14.05714333 -0.04153457 0 0 Z " fill="#7DE4A3" transform="translate(368.375,165.625)"/>
<path d="M0 0 C15.18 0 30.36 0 46 0 C46 22.19263952 38.9484777 43.42960414 23.33203125 59.5625 C20.97747239 61.92977293 20.97747239 61.92977293 19.10546875 64.50390625 C16.57340321 67.50574277 13.69478898 69.70215443 10.5 71.9375 C9.56861206 72.59045044 9.56861206 72.59045044 8.6184082 73.2565918 C-10.93263492 86.69434413 -34.40818546 92.11869925 -57.8125 87.8125 C-73.49764269 84.2301942 -86.80954779 77.4187379 -99 67 C-98.46142103 60.91304147 -95.8727303 55.89109677 -93.3125 50.4375 C-92.86277832 49.46474121 -92.41305664 48.49198242 -91.94970703 47.48974609 C-91.05271443 45.551147 -90.15271334 43.61393673 -89.24951172 41.67822266 C-88.16075083 39.3445558 -87.07945355 37.00774603 -86.00390625 34.66796875 C-84.67440501 31.77622384 -83.33996096 28.88690777 -82 26 C-81.34 26 -80.68 26 -80 26 C-78.95502642 27.16965793 -77.963904 28.38768092 -77 29.625 C-70.82864207 36.8440833 -62.38444371 41.48230021 -53 43 C-38.25466211 44.08112457 -26.46197524 41.70546145 -14.76953125 32.18359375 C-5.35637891 23.44154795 -2.25688358 12.41285971 0 0 Z " fill="#94DDAB" transform="translate(495,320)"/>
<path d="M0 0 C14.85 0 29.7 0 45 0 C45.99 4.29 46.98 8.58 48 13 C51.70148799 24.81628859 59.18416643 33.01761587 70 39 C79.79582136 43.9962623 91.21152113 44.53844592 101.84375 42.12890625 C110.3752403 39.30053175 116.9217458 35.26636555 123.1171875 28.78515625 C125 27 125 27 127 27 C129.27842211 31.79275713 131.53915221 36.59336356 133.78417969 41.40185547 C134.61196704 43.17079383 135.44349709 44.93798449 136.27832031 46.70361328 C137.55138239 49.40129245 138.80838201 52.10597074 140.0625 54.8125 C140.46847412 55.66553711 140.87444824 56.51857422 141.29272461 57.39746094 C141.66147705 58.20086914 142.03022949 59.00427734 142.41015625 59.83203125 C142.74152588 60.54077393 143.07289551 61.2495166 143.41430664 61.97973633 C144.12003756 64.41405203 143.91111089 65.65401291 143 68 C127.52946058 82.81685466 104.23114438 89.59060037 83.3203125 89.1875 C57.80997041 87.74691598 36.4262142 76.52422338 19.38867188 57.64306641 C12.47086127 49.45796349 7.62101687 40.0504602 4 30 C3.69320312 29.16339844 3.38640625 28.32679688 3.0703125 27.46484375 C-0.20944816 18.10971692 0 10.32312757 0 0 Z " fill="#94DEAB" transform="translate(198,320)"/>
<path d="M0 0 C1 2 1 2 -0.04125977 5.55541992 C-0.58345685 7.11651875 -1.13422638 8.67465455 -1.69140625 10.23046875 C-1.98798126 11.07720154 -2.28455627 11.92393433 -2.59011841 12.79632568 C-3.57317232 15.59617845 -4.56735863 18.39192261 -5.5625 21.1875 C-6.24560702 23.11972869 -6.92830148 25.05210329 -7.6105957 26.98461914 C-9.0247343 30.98546197 -10.44402933 34.98443162 -11.86621094 38.98242188 C-13.5973862 43.85455881 -15.30765355 48.73366663 -17.00874329 53.61637878 C-18.26102725 57.20604097 -19.52310243 60.79220668 -20.78756714 64.37759399 C-21.38526621 66.07778021 -21.97931142 67.77925556 -22.5696106 69.48202515 C-23.39366577 71.85527249 -24.23207222 74.22296642 -25.07421875 76.58984375 C-25.31222198 77.28583679 -25.55022522 77.98182983 -25.79544067 78.69891357 C-28.17920774 85.30544535 -31.58148515 87.99901039 -37.609375 91.29296875 C-38.74036621 91.91453857 -39.87135742 92.5361084 -41.03662109 93.17651367 C-42.27429315 93.84706567 -43.51208972 94.5173879 -44.75 95.1875 C-46.04140402 95.89322333 -47.33257797 96.59936783 -48.62353516 97.3059082 C-58.84065296 102.88384775 -69.12642058 108.33275319 -79.4203186 113.76730347 C-88.94035914 118.79469575 -98.35088988 123.9758012 -107.69287109 129.32885742 C-115.57165341 133.81848601 -123.6003735 137.9834956 -131.66577148 142.12597656 C-138.70635245 145.75961335 -145.6256113 149.56186926 -152.5 153.5 C-160.8343874 158.26552634 -169.24551264 162.85706909 -177.75 167.3125 C-178.82830078 167.88226563 -179.90660156 168.45203125 -181.01757812 169.0390625 C-182.01724609 169.55855469 -183.01691406 170.07804688 -184.046875 170.61328125 C-184.93213867 171.07516846 -185.81740234 171.53705566 -186.72949219 172.01293945 C-189 173 -189 173 -192 173 C-177.15757766 159.05913886 -177.15757766 159.05913886 -171.0859375 153.8359375 C-168.17636714 151.2750797 -165.34158899 148.63583399 -162.5 146 C-158.36728321 142.16822916 -154.20578628 138.38534628 -149.9453125 134.6953125 C-144.00414864 129.5176717 -138.19900259 124.18346156 -132.375 118.875 C-129.29690434 116.07242619 -126.2069813 113.29032125 -123.0625 110.5625 C-119.16753518 107.17730563 -115.36977339 103.68914728 -111.5715332 100.1965332 C-104.80835008 93.97943899 -97.98035949 87.84031329 -91.0546875 81.8046875 C-87.00029831 78.24360802 -83.005467 74.6158775 -79 71 C-77.33359149 69.49971321 -75.66692647 67.99971128 -74 66.5 C-73.175 65.7575 -72.35 65.015 -71.5 64.25 C-67.75 60.875 -67.75 60.875 -64 57.5 C-63.17371094 56.75621094 -62.34742188 56.01242188 -61.49609375 55.24609375 C-59.84296657 53.758538 -58.18932744 52.27155097 -56.53515625 50.78515625 C-52.13486935 46.82976408 -47.74729624 42.86132802 -43.375 38.875 C-40.31868051 36.09187108 -37.25042752 33.33020197 -34.125 30.625 C-30.51425778 27.48974647 -27.00648588 24.25057078 -23.5 21 C-15.92358877 13.9896737 -15.92358877 13.9896737 -12.4375 10.875 C-11.56931641 10.09769531 -11.56931641 10.09769531 -10.68359375 9.3046875 C-9 8 -9 8 -6.8515625 6.9453125 C-4.45466712 5.7215811 -4.11963808 4.38856123 -3 2 C-2.01 1.34 -1.02 0.68 0 0 Z " fill="#80B18A" transform="translate(563,168)"/>
<path d="M0 0 C1.33802769 0.75580573 2.66722508 1.52740701 3.98828125 2.3125 C4.684375 2.71460693 5.38046875 3.11671387 6.09765625 3.53100586 C12.12684328 7.07370842 17.77857346 11.01874945 23.30078125 15.3125 C20.83521993 18.07926969 18.14981439 19.65794895 14.91015625 21.4296875 C13.81928711 22.03022949 12.72841797 22.63077148 11.60449219 23.24951172 C11.02534058 23.56531189 10.44618896 23.88111206 9.8494873 24.20648193 C7.40934156 25.53734256 4.97568884 26.87987687 2.54156494 28.22171021 C1.29297891 28.90984371 0.0440749 29.59740057 -1.20513916 30.28439331 C-8.10678582 34.08071591 -14.99561317 37.90202701 -21.81518555 41.84423828 C-25.80841371 44.15171826 -29.74215168 46.38984534 -33.96875 48.2421875 C-46.44349419 54.00374147 -50.96783364 65.15961493 -56.9609375 76.96826172 C-59.70086052 82.23953496 -62.72962626 87.33055275 -65.76171875 92.4375 C-70.93028034 101.23572612 -75.99191569 110.08882047 -80.99389648 118.98266602 C-84.99593204 126.09184522 -89.06304057 133.1608537 -93.1862793 140.20043945 C-95.50490989 144.17529839 -97.69476453 148.16603098 -99.69921875 152.3125 C-100.02921875 152.3125 -100.35921875 152.3125 -100.69921875 152.3125 C-100.88604176 143.3318628 -101.0274533 134.35191222 -101.11371613 125.36974335 C-101.15515614 121.19712328 -101.21119273 117.02584939 -101.30273438 112.85400391 C-101.39080241 108.81435794 -101.43772611 104.7759915 -101.45823669 100.73545837 C-101.47281805 99.20779817 -101.50128233 97.68019389 -101.5450592 96.15309143 C-102.20435079 72.16115973 -85.53228905 52.67312276 -70.03125 35.74609375 C-58.83417253 24.06137136 -46.26519646 15.42587715 -32.01171875 7.9375 C-31.06208252 7.43758545 -30.11244629 6.9376709 -29.1340332 6.42260742 C-8.42577835 -4.19044039 -8.42577835 -4.19044039 0 0 Z " fill="#7FB28A" transform="translate(469.69921875,190.6875)"/>
<path d="M0 0 C0.99 0.495 0.99 0.495 2 1 C0.84960919 2.15039081 -0.30111734 3.30044707 -1.453125 4.44921875 C-2.51040298 5.50916662 -3.56225995 6.57454233 -4.609375 7.64453125 C-8.17548572 11.26789604 -11.8583825 14.67207659 -15.70703125 17.9921875 C-18.46905971 20.4107269 -21.1739428 22.88895021 -23.875 25.375 C-30.45585014 31.42702258 -37.05477738 37.45768813 -43.8125 43.3125 C-48.03143491 46.98374356 -52.11940112 50.79243726 -56.21972656 54.59472656 C-59.73177118 57.84586479 -63.28983958 61.02969216 -66.91015625 64.16015625 C-69.64370638 66.56670226 -72.32110702 69.03306703 -75 71.5 C-78.95586722 75.14170497 -82.94561697 78.73499563 -87.0078125 82.2578125 C-90.23022547 85.07584424 -93.39694979 87.95551613 -96.57421875 90.82421875 C-98.63702788 92.67443563 -100.7171237 94.49944809 -102.8125 96.3125 C-106.44192347 99.47076099 -109.97227454 102.72934761 -113.5 106 C-117.63282622 109.83165812 -121.79420864 113.61464933 -126.0546875 117.3046875 C-131.99585136 122.4823283 -137.80099741 127.81653844 -143.625 133.125 C-147.37655054 136.53980547 -151.16151975 139.90830015 -154.98828125 143.23828125 C-161.63882173 149.0623468 -168.14568489 155.04603583 -174.65234375 161.02954102 C-178.71081156 164.75355611 -182.82760087 168.40437369 -187 172 C-187 168.74922913 -186.49008238 167.70651319 -184.9453125 164.9296875 C-184.5006665 164.12474854 -184.05602051 163.31980957 -183.59790039 162.49047852 C-183.11184326 161.62737061 -182.62578613 160.7642627 -182.125 159.875 C-181.62540771 158.97773193 -181.12581543 158.08046387 -180.61108398 157.15600586 C-177.1013302 150.88149582 -173.49678595 144.6663823 -169.82910156 138.4831543 C-166.62516218 133.0807141 -163.48651184 127.64366382 -160.375 122.1875 C-159.88700928 121.33260986 -159.39901855 120.47771973 -158.89624023 119.59692383 C-156.24303639 114.94507143 -153.59639879 110.28954098 -150.95529175 105.6308136 C-149.53175836 103.12125811 -148.10554952 100.6132283 -146.67901611 98.1053772 C-145.98631334 96.88601734 -145.29482894 95.66596438 -144.60467529 94.44515991 C-142.4364056 90.61006687 -140.22521736 86.80225014 -138 83 C-137.53408447 82.14494873 -137.06816895 81.28989746 -136.58813477 80.40893555 C-132.66288778 73.70404054 -127.48449246 70.81163029 -120.6875 67.3125 C-118.44111532 66.10601029 -116.19503015 64.89896275 -113.94921875 63.69140625 C-112.7998584 63.08312988 -111.65049805 62.47485352 -110.46630859 61.84814453 C-104.93166903 58.89722035 -99.46733754 55.82330067 -94 52.75 C-92.95980713 52.16839111 -91.91961426 51.58678223 -90.84790039 50.98754883 C-84.09146078 47.20344904 -77.38210458 43.34884576 -70.73828125 39.37011719 C-65.24319299 36.09012607 -59.62929546 33.04257221 -54 30 C-40.64140486 22.75848909 -27.34916407 15.41549983 -14.13671875 7.91015625 C-12.84967041 7.1833667 -12.84967041 7.1833667 -11.53662109 6.44189453 C-9.81898761 5.46553809 -8.10850633 4.47650955 -6.40478516 3.47607422 C-5.59702637 3.00830566 -4.78926758 2.54053711 -3.95703125 2.05859375 C-2.88352417 1.42715454 -2.88352417 1.42715454 -1.78833008 0.78295898 C-0.90310669 0.39539429 -0.90310669 0.39539429 0 0 Z " fill="#99FABE" transform="translate(558,170)"/>
<path d="M0 0 C7.44823433 3.38961562 12.04814844 12.65963697 14.95703125 19.890625 C18.2901517 28.93018726 17.70454696 38.77459021 14.95703125 47.890625 C14.72371094 48.69242187 14.49039063 49.49421875 14.25 50.3203125 C10.55030162 61.16600365 1.69639832 69.84534238 -8.3671875 75.10546875 C-18.91801637 80.00593638 -32.60233252 81.00040256 -43.68359375 76.984375 C-55.81680825 71.35970603 -64.96110423 63.05775912 -70.11328125 50.5859375 C-71.44715533 46.71882356 -72.31714499 42.91564765 -73.04296875 38.890625 C-72.1715625 38.39433594 -71.30015625 37.89804687 -70.40234375 37.38671875 C-69.19919323 36.70056558 -67.99607036 36.01436393 -66.79296875 35.328125 C-66.15472168 34.96460938 -65.51647461 34.60109375 -64.85888672 34.2265625 C-60.93682353 31.98816899 -57.04652607 29.70386924 -53.16796875 27.390625 C-48.02043645 24.37428001 -42.74937838 21.71382981 -37.39819336 19.08642578 C-32.08977672 16.46081139 -26.89935648 13.65539487 -21.73046875 10.765625 C-20.59399902 10.13213135 -20.59399902 10.13213135 -19.43457031 9.48583984 C-16.14121873 7.64458967 -12.86230351 5.78542492 -9.6015625 3.88671875 C-8.63347656 3.33113281 -7.66539062 2.77554687 -6.66796875 2.203125 C-5.85585938 1.72488281 -5.04375 1.24664062 -4.20703125 0.75390625 C-2.04296875 -0.109375 -2.04296875 -0.109375 0 0 Z " fill="#1B4432" transform="translate(478.04296875,285.109375)"/>
<path d="M0 0 C2.87122132 0.88481846 5.27222055 2.0384222 7.90698242 3.4831543 C8.93065918 4.0397876 9.95433594 4.5964209 11.0090332 5.16992188 C12.10586426 5.77473389 13.20269531 6.3795459 14.33276367 7.00268555 C16.0787908 7.95494093 17.824824 8.9071854 19.57122803 9.85874939 C21.38614819 10.84856432 23.19956154 11.84110324 25.01293945 12.83374023 C29.64625883 15.36602026 34.30144984 17.85728072 38.95556641 20.35107422 C49.58930239 26.05054367 60.1680225 31.83271249 70.64526367 37.81518555 C71.20184956 48.63900479 66.1418271 57.3240598 59.20776367 65.37768555 C50.84839348 73.97629698 40.72921041 78.81364343 28.6027832 79.23925781 C14.75028845 79.32857636 3.98421768 75.07797191 -6.16723633 65.56518555 C-10.40526262 61.1324796 -13.03011957 56.45401496 -15.35473633 50.81518555 C-15.71438477 49.95666992 -16.0740332 49.0981543 -16.44458008 48.21362305 C-20.58791473 37.29513602 -18.66361023 25.30809144 -14.35473633 14.81518555 C-12.62229631 11.55956091 -10.66978897 8.68171475 -8.35473633 5.81518555 C-7.84555664 5.18225586 -7.33637695 4.54932617 -6.81176758 3.8972168 C-3.12433745 -0.24521757 -3.12433745 -0.24521757 0 0 Z " fill="#1B4432" transform="translate(261.354736328125,285.184814453125)"/>
<path d="M0 0 C4.59173656 1.66484016 8.70104604 3.97831078 12.9375 6.375 C19.08732695 9.82840859 25.25985695 13.23279403 31.46508789 16.58569336 C39.48284569 20.92008099 47.32678398 25.36921485 55.0390625 30.2265625 C58.08762894 32.05248488 61.18052027 33.63199324 64.375 35.1875 C71.62289665 38.72754213 78.60629893 42.67323845 85.61230469 46.66748047 C91.06628212 49.77584152 96.5315885 52.86059386 102.02734375 55.89453125 C102.61913925 56.22154022 103.21093475 56.54854919 103.82066345 56.88546753 C106.68658214 58.46844021 109.55425011 60.04803968 112.42456055 61.62304688 C114.55599733 62.79995162 116.68031433 63.98984785 118.79711914 65.19287109 C120.98361516 66.42653552 123.19271941 67.62075566 125.41967773 68.77978516 C134.23530614 73.63969099 138.2812149 78.87425514 142.8125 87.75 C143.47669459 88.98782187 144.14450687 90.22370843 144.81567383 91.45776367 C146.20386359 94.01660442 147.57636693 96.5829509 148.93847656 99.15576172 C151.8888422 104.69700347 155.03663305 110.12398767 158.17633057 115.55935669 C164.03309484 125.7136857 169.79000555 135.92503404 175.52856445 146.14648438 C179.05810865 152.40877774 182.69606859 158.59464351 186.55053711 164.66333008 C187.42585777 166.07403905 188.22251903 167.5330953 189 169 C188.67 169.66 188.34 170.32 188 171 C187.01 170.34 186.02 169.68 185 169 C185 168.34 185 167.68 185 167 C184.41444336 166.73662842 183.82888672 166.47325684 183.22558594 166.2019043 C180.90143714 164.94677217 179.29392262 163.59314046 177.390625 161.76953125 C176.71773437 161.13080078 176.04484375 160.49207031 175.3515625 159.83398438 C174.31128906 158.83334961 174.31128906 158.83334961 173.25 157.8125 C167.94047449 152.74018713 162.54959151 147.80848286 157 143 C151.10466974 137.75568781 145.28231929 132.43229575 139.47070312 127.09570312 C133.41496742 121.53876676 127.33117714 116.01390278 121.125 110.625 C117.15902924 107.17283922 113.29482354 103.61249119 109.42675781 100.05175781 C105.98705489 96.89053811 102.50378577 93.78929547 98.9765625 90.7265625 C92.37397575 84.95908553 85.92254696 79.02134607 79.46630859 73.09130859 C74.67462084 68.69341605 69.84127063 64.34313346 65 60 C62.49687583 57.74797293 59.99453386 55.49507877 57.4921875 53.2421875 C55.85260121 51.76707382 54.21200345 50.29308348 52.5703125 48.8203125 C47.97969297 44.69902148 43.41558619 40.55120059 38.875 36.375 C34.95072729 32.76724078 30.98826859 29.21168538 26.96484375 25.71484375 C20.15342674 19.77008815 13.50306026 13.64755125 6.875 7.5 C6.19880615 6.87601318 5.5226123 6.25202637 4.82592773 5.60913086 C4.20016846 5.02655518 3.57440918 4.44397949 2.9296875 3.84375 C2.36491699 3.31974609 1.80014648 2.79574219 1.21826172 2.25585938 C0 1 0 1 0 0 Z " fill="#94F7B8" transform="translate(178,170)"/>
<path d="M0 0 C0.33 0 0.66 0 1 0 C1 58.74 1 117.48 1 178 C-3.50739159 176.19704336 -5.26162246 175.12652184 -8.625 171.9375 C-12.08420957 168.73339438 -15.58276566 165.65157731 -19.25 162.6875 C-23.5645109 159.19567126 -27.79705528 155.62419165 -32 152 C-37.00173276 147.69019052 -42.0629325 143.46839859 -47.1875 139.3046875 C-50.50441866 136.58665693 -53.78757407 133.83087752 -57.0625 131.0625 C-57.62332275 130.5893335 -58.18414551 130.11616699 -58.76196289 129.62866211 C-60.9103116 127.80843687 -63.00798735 125.99201265 -65 124 C-64.37996094 123.52433594 -63.75992187 123.04867187 -63.12109375 122.55859375 C-28.48117289 95.17944233 -8.77985957 58.03477066 -2.25 14.625 C-2.02815478 13.19518643 -1.80550201 11.76549791 -1.58203125 10.3359375 C-1.04542223 6.89200833 -0.51957961 3.44654474 0 0 Z " fill="#487356" transform="translate(562,350)"/>
<path d="M0 0 C2.12199991 3.18299986 2.27796798 4.26882709 2.484375 7.953125 C4.59891077 35.92015902 14.81100173 64.14328168 31 87 C31.70769531 88.01191406 32.41539062 89.02382813 33.14453125 90.06640625 C42.54146544 103.05279999 53.13453258 113.50315349 66 123 C62.76008207 126.32716886 59.44188894 129.35506643 55.8125 132.25 C52.08922128 135.25956712 48.47257665 138.33409403 44.9375 141.5625 C40.9806699 145.16470853 36.8961464 148.52790104 32.6953125 151.83984375 C29.60300545 154.318171 26.57997591 156.86905852 23.5625 159.4375 C18.59982951 163.65993103 13.59130607 167.81912365 8.53515625 171.9296875 C5.6736784 174.26648759 2.83812696 176.6348942 0 179 C0 119.93 0 60.86 0 0 Z " fill="#2B573E" transform="translate(175,351)"/>
<path d="M0 0 C22.49423994 0 22.49423994 0 31.0625 1.375 C32.11542236 1.54 33.16834473 1.705 34.25317383 1.875 C44.08669114 3.57201888 53.62295863 6.19744142 63.1875 9 C64.29594772 9.3225174 64.29594772 9.3225174 65.42678833 9.65155029 C67.5528481 10.27603718 69.67361437 10.91565713 71.79296875 11.5625 C73.0152417 11.93503906 74.23751465 12.30757812 75.49682617 12.69140625 C79.33071602 14.12353738 82.49027579 15.90573541 86 18 C87.79489049 18.79121703 89.60605536 19.54752808 91.4375 20.25 C92.30246094 20.58515625 93.16742188 20.9203125 94.05859375 21.265625 C94.69925781 21.50796875 95.33992188 21.7503125 96 22 C96 22.33 96 22.66 96 23 C95.30519531 23.17273438 94.61039062 23.34546875 93.89453125 23.5234375 C58.09191896 33.41566751 27.14197919 58.42799833 8.59667969 90.42089844 C5.94002131 95.21897287 3.43529195 100.086368 1 105 C0.67 105 0.34 105 0 105 C0 70.35 0 35.7 0 0 Z " fill="#9AFCC5" transform="translate(369,166)"/>
<path d="M0 0 C2.73553966 2.40355186 4.03601154 4.835119 5.53125 8.13671875 C6.0070752 9.17836182 6.48290039 10.22000488 6.97314453 11.29321289 C7.47700684 12.41332764 7.98086914 13.53344238 8.5 14.6875 C9.02319824 15.83404053 9.54639648 16.98058105 10.08544922 18.16186523 C12.27090323 22.95456784 14.43914984 27.75491949 16.60253906 32.55761719 C17.62409397 34.82497077 18.64777226 37.09136916 19.67382812 39.35668945 C20.62913015 41.46706478 21.57851371 43.58013086 22.52148438 45.69604492 C22.95009766 46.64326416 23.37871094 47.5904834 23.8203125 48.56640625 C24.38129639 49.81852905 24.38129639 49.81852905 24.95361328 51.09594727 C25.85561231 53.16466874 25.85561231 53.16466874 28 54 C27.67 73.8 27.34 93.6 27 114 C24.22693935 111.22693935 22.45973779 108.72761087 20.375 105.4375 C16.99677843 100.29888408 13.33531657 95.77670055 9.13671875 91.29296875 C7.25316019 89.27167282 5.50273567 87.196077 3.75 85.0625 C-10.94631192 68.35299466 -33.25193537 54.67678391 -54 47 C-50.31879788 42.04941784 -46.02059459 38.45397568 -41.21484375 34.609375 C-37.62737146 31.72508753 -34.15731511 28.71151541 -30.6875 25.6875 C-30.05585938 25.13811768 -29.42421875 24.58873535 -28.7734375 24.02270508 C-27.48824965 22.90484581 -26.20325652 21.78676264 -24.91845703 20.66845703 C-8.47215427 6.36532226 -8.47215427 6.36532226 0 0 Z " fill="#80AF8A" transform="translate(342,388)"/>
<path d="M0 0 C4.46046822 1.41923989 7.3282346 3.86639504 10.625 7.0625 C15.27045456 11.4441951 20.04784971 15.55087966 25.0234375 19.55859375 C29.2068432 22.98986483 33.2753952 26.54793638 37.34912109 30.1081543 C40.40838885 32.77568176 43.48204208 35.41567744 46.625 37.984375 C47.46526733 38.67188843 47.46526733 38.67188843 48.32250977 39.37329102 C49.84489647 40.61214326 51.37342889 41.84343221 52.90234375 43.07421875 C53.59457031 43.70972656 54.28679687 44.34523438 55 45 C55 45.66 55 46.32 55 47 C54.00742187 47.4846875 53.01484375 47.969375 51.9921875 48.46875 C22.49839647 62.9687973 -2.98658881 80.81786876 -20.96875 108.91015625 C-23 112 -23 112 -25 114 C-25.09317749 106.61056029 -25.16400459 99.22124974 -25.20724869 91.83133888 C-25.22801657 88.39890232 -25.25613212 84.96687125 -25.30175781 81.53466797 C-25.35402097 77.57785092 -25.37303456 73.62119111 -25.390625 69.6640625 C-25.41127014 68.44699615 -25.43191528 67.22992981 -25.45318604 65.97598267 C-25.45516216 58.38574591 -24.33485844 52.79599986 -21 46 C-20.2767097 44.39397829 -19.55455189 42.7874461 -18.83349609 41.18041992 C-18.06610246 39.52921328 -17.29599641 37.87926501 -16.5234375 36.23046875 C-16.11211578 35.34643875 -15.70079407 34.46240875 -15.27700806 33.55158997 C-13.97885878 30.76237745 -12.67718759 27.97482916 -11.375 25.1875 C-10.06615037 22.38209936 -8.75809216 19.5763364 -7.4515686 16.76985168 C-6.64278859 15.0329134 -5.83261398 13.29662361 -5.02084351 11.56108093 C-3.24155636 7.74321122 -1.50265544 3.9378734 0 0 Z " fill="#97E5B0" transform="translate(394,388)"/>
<path d="M0 0 C0.33 0 0.66 0 1 0 C1.01458252 0.84071045 1.02916504 1.6814209 1.04418945 2.54760742 C1.10605148 5.73317414 1.1803396 8.91816719 1.26245117 12.10327148 C1.29525559 13.4693754 1.32341819 14.83560044 1.34643555 16.2019043 C1.77662075 41.08857605 11.23708865 63.62244745 28 82 C28.68449219 82.76570313 29.36898437 83.53140625 30.07421875 84.3203125 C52.07176138 107.65966457 81.981122 116.2158346 113 119 C109.4588326 122.63263666 105.76728555 125.99422933 101.875 129.25 C101.02240601 129.96833008 101.02240601 129.96833008 100.15258789 130.70117188 C96.61328775 133.67519113 93.0352149 136.59676417 89.4375 139.5 C84.37549138 143.61473215 79.59134049 147.97342851 74.82421875 152.421875 C71.94994166 155.04569641 69.00682603 157.53058305 66 160 C29.85435631 131.93028104 9.08268011 95.0758648 2 50 C1.6724421 47.04508296 1.40174196 44.10327376 1.2109375 41.13671875 C1.06138393 38.81499049 1.06138393 38.81499049 0 36 C-0.08507079 33.2684044 -0.11591565 30.56308557 -0.09765625 27.83203125 C-0.0962413 27.03721848 -0.09482635 26.2424057 -0.09336853 25.42350769 C-0.08777378 22.88646675 -0.07522228 20.34951425 -0.0625 17.8125 C-0.05748432 16.09179815 -0.05292153 14.37109492 -0.04882812 12.65039062 C-0.03780607 8.4335597 -0.02054506 4.21679484 0 0 Z " fill="#3F7053" transform="translate(175,315)"/>
<path d="M0 0 C0.33 0 0.66 0 1 0 C2.09483185 31.61256775 -0.07793673 62.33408728 -12 92 C-12.27424805 92.7105957 -12.54849609 93.42119141 -12.83105469 94.15332031 C-22.19977181 118.27468877 -38.3425356 137.43805501 -57 155 C-57.56251465 155.54124512 -58.1250293 156.08249023 -58.70458984 156.64013672 C-60.26171875 158.05859375 -60.26171875 158.05859375 -63 160 C-67.53053613 159.47696613 -70.34466527 156.41452125 -73.625 153.5 C-74.24673096 152.95754639 -74.86846191 152.41509277 -75.5090332 151.85620117 C-79.10191653 148.71179122 -82.65079734 145.51994303 -86.1875 142.3125 C-92.21845162 136.84417398 -98.53504325 131.74135132 -104.91796875 126.69140625 C-105.83191406 125.96824219 -106.74585938 125.24507813 -107.6875 124.5 C-108.51636719 123.8503125 -109.34523438 123.200625 -110.19921875 122.53125 C-111.09060547 121.77328125 -111.09060547 121.77328125 -112 121 C-112 120.67 -112 120.34 -112 120 C-111.30028076 119.92483154 -110.60056152 119.84966309 -109.87963867 119.7722168 C-106.64785827 119.41976065 -103.41775029 119.05370435 -100.1875 118.6875 C-99.08728516 118.56955078 -97.98707031 118.45160156 -96.85351562 118.33007812 C-68.29001488 115.04401167 -41.18511561 100.89871766 -22.95703125 78.48828125 C-14.48165059 67.25881172 -7.99317132 55.51751986 -4 42 C-3.74323486 41.15953125 -3.48646973 40.3190625 -3.22192383 39.453125 C-0.86148146 31.0654651 -0.45766466 22.92228277 -0.3125 14.25 C-0.27922686 12.85934498 -0.24472851 11.46871871 -0.20898438 10.078125 C-0.12733488 6.71883159 -0.05791607 3.35977204 0 0 Z " fill="#669270" transform="translate(562,314)"/>
<path d="M0 0 C0.66 0 1.32 0 2 0 C3.22998047 1.71801758 3.22998047 1.71801758 4.6171875 4.14453125 C5.13651855 5.04051025 5.65584961 5.93648926 6.19091797 6.85961914 C7.02453857 8.32129517 7.02453857 8.32129517 7.875 9.8125 C11.32407226 15.79157451 14.77930746 21.74017475 18.5625 27.515625 C19.11953613 28.36793701 19.67657227 29.22024902 20.25048828 30.09838867 C21.3150979 31.71322259 22.39123964 33.32052575 23.47998047 34.91918945 C23.95838379 35.648396 24.43678711 36.37760254 24.9296875 37.12890625 C25.56753174 38.07358765 25.56753174 38.07358765 26.21826172 39.03735352 C27.71038848 42.78351436 26.1166034 45.71487089 24.65234375 49.29541016 C24.08619302 50.54578264 23.51423712 51.79353759 22.9375 53.0390625 C22.4762397 54.05140457 22.4762397 54.05140457 22.00566101 55.084198 C21.00923021 57.26701091 20.00502264 59.44613123 19 61.625 C18.31461277 63.11902722 17.62947344 64.61316819 16.94458008 66.10742188 C15.27160396 69.7526444 13.59117013 73.39436885 11.90777588 77.03479004 C11.08376997 78.81864954 10.26312941 80.60406261 9.44287109 82.38964844 C8.19856855 85.09666126 6.94577385 87.79945943 5.6875 90.5 C5.15672852 91.65363037 5.15672852 91.65363037 4.61523438 92.83056641 C2.23324605 97.88337698 2.23324605 97.88337698 0 99 C-2.79793129 93.21321976 -5.56285807 87.41169259 -8.30371094 81.59765625 C-9.52000895 79.01801211 -10.73960277 76.44006969 -11.96191406 73.86328125 C-13.70801053 70.17689389 -15.43527334 66.48208664 -17.15255737 62.78219604 C-17.84086927 61.30593721 -18.53463929 59.83221062 -19.23391724 58.3611145 C-20.22678936 56.26944775 -21.19937191 54.16940235 -22.16796875 52.06640625 C-22.46953888 51.44209717 -22.77110901 50.81778809 -23.08181763 50.17456055 C-24.95776121 46.02953809 -25.28459441 43.36432237 -24 39 C-22.86767578 36.67675781 -22.86767578 36.67675781 -21.4453125 34.453125 C-20.65411011 33.19761841 -20.65411011 33.19761841 -19.84692383 31.91674805 C-19.27868896 31.03672119 -18.7104541 30.15669434 -18.125 29.25 C-16.94317114 27.38725097 -15.76219784 25.52395888 -14.58203125 23.66015625 C-13.98471191 22.72187988 -13.38739258 21.78360352 -12.77197266 20.81689453 C-11.06600244 18.10492369 -9.40485368 15.37150354 -7.76171875 12.62109375 C-7.26333496 11.78868164 -6.76495117 10.95626953 -6.25146484 10.09863281 C-5.30553302 8.51362727 -4.36430398 6.9258039 -3.42822266 5.33496094 C-2.3392651 3.52320728 -1.17699118 1.7558393 0 0 Z " fill="#1C4332" transform="translate(368,344)"/>
<path d="M0 0 C0.99 0.495 0.99 0.495 2 1 C1.49549316 1.46897705 0.99098633 1.9379541 0.47119141 2.42114258 C-1.81379531 4.54848048 -4.09443231 6.68042587 -6.375 8.8125 C-7.1690625 9.55048828 -7.963125 10.28847656 -8.78125 11.04882812 C-9.54179687 11.76103516 -10.30234375 12.47324219 -11.0859375 13.20703125 C-11.7876709 13.8616333 -12.4894043 14.51623535 -13.21240234 15.19067383 C-15.18720116 17.07476353 -15.18720116 17.07476353 -17 20 C-17.66 20 -18.32 20 -19 20 C-19.36351562 20.84884766 -19.36351562 20.84884766 -19.734375 21.71484375 C-21.24540853 24.44309874 -23.07743476 26.32159248 -25.25 28.5625 C-42.86227658 47.39753349 -56.58373484 70.52122255 -69 93 C-69.47791992 93.86399414 -69.95583984 94.72798828 -70.44824219 95.61816406 C-76.79899092 107.20189625 -82.5017345 119.00899859 -87.75 131.125 C-88.27585693 132.32890381 -88.80171387 133.53280762 -89.34350586 134.77319336 C-89.82311768 135.90249268 -90.30272949 137.03179199 -90.796875 138.1953125 C-91.22323242 139.19578613 -91.64958984 140.19625977 -92.08886719 141.22705078 C-93.00204162 144.00621347 -93.18692286 146.09871864 -93 149 C-94.32 149.33 -95.64 149.66 -97 150 C-97 131.52 -97 113.04 -97 94 C-96.34 94 -95.68 94 -95 94 C-94.89558594 93.46117187 -94.79117187 92.92234375 -94.68359375 92.3671875 C-86.87642838 65.33208913 -57.89623277 38.78208081 -36 23 C-35.04891357 22.31429932 -35.04891357 22.31429932 -34.07861328 21.61474609 C-24.6808615 14.8994189 -14.96704484 8.8272613 -5 3 C-3.61361328 2.1028125 -3.61361328 2.1028125 -2.19921875 1.1875 C-1.11060547 0.5996875 -1.11060547 0.5996875 0 0 Z " fill="#517C5D" transform="translate(465,494)"/>
<path d="M0 0 C21.49924705 10.16149822 41.57454515 23.92520015 58.56640625 40.6015625 C59.95162767 41.95281391 61.36603612 43.27394379 62.78125 44.59375 C75.66105505 56.88138011 96.57151866 79.25271966 98.24050903 97.65132141 C98.23606781 98.59952255 98.23162659 99.54772369 98.22705078 100.5246582 C98.22689972 101.60540115 98.22674866 102.6861441 98.22659302 103.79963684 C98.21627045 104.9550145 98.20594788 106.11039215 98.1953125 107.30078125 C98.1924826 108.49229294 98.18965271 109.68380463 98.18673706 110.91142273 C98.17555433 114.71188456 98.1504528 118.51210956 98.125 122.3125 C98.11496775 124.89127263 98.10584233 127.47004897 98.09765625 130.04882812 C98.0756212 136.36596603 98.04216232 142.68296609 98 149 C96.35 148.67 94.7 148.34 93 148 C94.32 147.67 95.64 147.34 97 147 C96.5153125 146.05382812 96.030625 145.10765625 95.53125 144.1328125 C91.8855342 136.95907361 88.39794364 129.75447535 85.1875 122.375 C69.06089869 85.61577651 48.08178387 50.78452717 20.43457031 21.54052734 C19.04166333 20.04474057 17.68369919 18.52476984 16.3359375 16.98828125 C11.77016733 11.80761633 7.26426919 7.3357891 1.6171875 3.33984375 C0.81667969 2.67662109 0.81667969 2.67662109 0 2 C0 1.34 0 0.68 0 0 Z " fill="#335E43" transform="translate(271,494)"/>
<path d="M0 0 C15.18 0 30.36 0 46 0 C46 23.78406028 37.8033294 45.13523247 21 62 C20.34 62.66 19.68 63.32 19 64 C8 53 -3 42 -14 31 C-13.32904297 30.34257812 -13.32904297 30.34257812 -12.64453125 29.671875 C-4.25993114 20.8760898 -2.15959645 11.8777805 0 0 Z " fill="#81B08B" transform="translate(495,320)"/>
<path d="M0 0 C14.85 0 29.7 0 45 0 C45.99 4.29 46.98 8.58 48 13 C50.47763776 20.52140035 53.42787916 25.39657511 59 31 C48.33333333 41.66666667 37.66666667 52.33333333 27 63 C15.23563495 57.40750505 8.67521192 42.9646476 4.35791016 31.24804688 C0.52690813 20.42058627 0 11.99509925 0 0 Z " fill="#80AF8B" transform="translate(198,320)"/>
<path d="M0 0 C0.86238281 0.46148437 1.72476563 0.92296875 2.61328125 1.3984375 C8.39367687 4.4879593 14.17666426 7.57179387 19.98046875 10.6171875 C21.23186646 11.27388428 21.23186646 11.27388428 22.50854492 11.94384766 C24.13441725 12.7962158 25.76085679 13.64750314 27.38793945 14.49755859 C31.98281537 16.90646583 36.51165851 19.3977169 41 22 C39.700625 23.4540625 39.700625 23.4540625 38.375 24.9375 C29.7583576 35.11895718 25.897708 44.71604402 24 58 C9.15 58 -5.7 58 -21 58 C-21 60.97 -21 63.94 -21 67 C-21.33 67 -21.66 67 -22 67 C-23.17152006 41.2916431 -15.32054433 20.58698144 0 0 Z " fill="#598765" transform="translate(219,262)"/>
<path d="M0 0 C2.27842211 4.79275713 4.53915221 9.59336356 6.78417969 14.40185547 C7.61196704 16.17079383 8.44349709 17.93798449 9.27832031 19.70361328 C10.55138239 22.40129245 11.80838201 25.10597074 13.0625 27.8125 C13.67146118 29.09205566 13.67146118 29.09205566 14.29272461 30.39746094 C14.66147705 31.20086914 15.03022949 32.00427734 15.41015625 32.83203125 C15.74152588 33.54077393 16.07289551 34.2495166 16.41430664 34.97973633 C17.12003756 37.41405203 16.91111089 38.65401291 16 41 C0.09330142 56.23458455 -23.22402789 62.42469066 -44.61328125 62.0703125 C-45.40089844 62.04710937 -46.18851562 62.02390625 -47 62 C-47 61.67 -47 61.34 -47 61 C-44.36 61 -41.72 61 -39 61 C-39 46.48 -39 31.96 -39 17 C-34.71 16.34 -30.42 15.68 -26 15 C-16.94972801 12.34394191 -10.41303347 8.59927158 -3.87109375 1.78125 C-2 0 -2 0 0 0 Z " fill="#7EAE89" transform="translate(325,347)"/>
<path d="M0 0 C0.66 0 1.32 0 2 0 C3.04497358 1.16965793 4.036096 2.38768092 5 3.625 C13.78570286 13.90227146 25.05783202 16.56198134 38 18 C38 32.52 38 47.04 38 62 C41.96 62 45.92 62 50 62 C50 62.33 50 62.66 50 63 C24.57127483 63.78645542 2.65911601 57.80193429 -17 41 C-16.46142103 34.91304147 -13.8727303 29.89109677 -11.3125 24.4375 C-10.63791748 22.97836182 -10.63791748 22.97836182 -9.94970703 21.48974609 C-9.05271443 19.551147 -8.15271334 17.61393673 -7.24951172 15.67822266 C-6.16075083 13.3445558 -5.07945355 11.00774603 -4.00390625 8.66796875 C-2.67440501 5.77622384 -1.33996096 2.88690777 0 0 Z " fill="#7FAF8A" transform="translate(413,346)"/>
<path d="M0 0 C0.66 0 1.32 0 2 0 C2.24234375 1.05058594 2.4846875 2.10117188 2.734375 3.18359375 C5.16786318 13.47930938 7.99485913 22.20675801 14 31 C14 31.66 14 32.32 14 33 C14.5878125 33.28101563 15.175625 33.56203125 15.78125 33.8515625 C17.81898586 34.90630606 19.61345331 36.07593057 21.5 37.375 C28.86627174 42.03389201 37.58028624 44.05698913 46 46 C42.93746737 48.04168842 41.10768233 48.51553992 37.5625 49.25 C28.83731157 51.34658654 19.70794252 54.78113151 14 62 C13.51144531 62.61230469 13.02289062 63.22460938 12.51953125 63.85546875 C7.94600768 70.05513403 5.93169156 76.60756497 4 84 C3.773125 84.86109375 3.54625 85.7221875 3.3125 86.609375 C2.85499707 88.40126146 2.42357826 90.19979238 2 92 C1.34 92 0.68 92 0 92 C-0.1451001 91.42145264 -0.2902002 90.84290527 -0.43969727 90.24682617 C-5.33044869 70.03806207 -5.33044869 70.03806207 -19 55 C-21.53683278 53.72180321 -24.13253086 52.74729876 -26.8125 51.8125 C-27.864375 51.43134033 -27.864375 51.43134033 -28.9375 51.04248047 C-33.89839449 49.2830135 -38.81182848 47.9264592 -44 47 C-40.93746737 44.95831158 -39.10768233 44.48446008 -35.5625 43.75 C-26.78889669 41.64177979 -17.79513306 38.2000138 -12 31 C-11.175 30.05125 -10.35 29.1025 -9.5 28.125 C-4.02138216 20.24408601 -1.78937822 9.27223262 0 0 Z " fill="#81E7A7" transform="translate(602,84)"/>
<path d="M0 0 C7.83113819 6.73842123 10.91928015 22.05737741 12 32 C12 34.97 12 37.94 12 41 C-3.18 41 -18.36 41 -34 41 C-34.66 35.72 -35.32 30.44 -36 25 C-32.81656621 21.34494639 -31.13042074 20.1747291 -27 18 C-25.05037876 16.81220993 -23.12331262 15.59188089 -21.19482422 14.37011719 C-19.13214825 13.06701592 -17.05507259 11.78936658 -14.9765625 10.51171875 C-9.78320431 7.27804767 -4.87400915 3.69681203 0 0 Z " fill="#628F6D" transform="translate(529,279)"/>
<path d="M0 0 C4.49209486 5.61511858 4.49209486 5.61511858 6.15625 8.5390625 C6.53354248 9.19293945 6.91083496 9.84681641 7.29956055 10.52050781 C7.69570557 11.21499023 8.09185059 11.90947266 8.5 12.625 C11.33397505 17.55469225 14.23312996 22.41038438 17.35546875 27.1640625 C17.90976562 28.01274902 18.4640625 28.86143555 19.03515625 29.73583984 C20.12062967 31.38746592 21.2179828 33.03135696 22.328125 34.66650391 C22.82183594 35.42108887 23.31554687 36.17567383 23.82421875 36.953125 C24.26854248 37.61473633 24.71286621 38.27634766 25.1706543 38.95800781 C26.71703196 42.76545637 25.14696227 45.64063465 23.65234375 49.29541016 C23.0862065 50.54578874 22.5142496 51.79354337 21.9375 53.0390625 C21.6299025 53.71400253 21.32230499 54.38894257 21.00538635 55.08433533 C20.00885045 57.2670082 19.0046463 59.44604988 18 61.625 C17.3160009 63.11825985 16.63232656 64.6116685 15.94897461 66.10522461 C11.05694871 76.77978807 6.09066481 87.41859103 1 98 C0.67 98 0.34 98 0 98 C0 65.66 0 33.32 0 0 Z " fill="#335E44" transform="translate(369,344)"/>
<path d="M0 0 C0.86238281 0.46148437 1.72476563 0.92296875 2.61328125 1.3984375 C8.39367687 4.4879593 14.17666426 7.57179387 19.98046875 10.6171875 C21.23186646 11.27388428 21.23186646 11.27388428 22.50854492 11.94384766 C24.13441725 12.7962158 25.76085679 13.64750314 27.38793945 14.49755859 C31.98281537 16.90646583 36.51165851 19.3977169 41 22 C39.700625 23.4540625 39.700625 23.4540625 38.375 24.9375 C33.65163485 30.45555455 29.54278801 36.16325864 27 43 C26.67 42.34 26.34 41.68 26 41 C24.33432859 40.33085056 22.66743048 39.66475395 21 39 C18.89862575 37.70255012 16.82807004 36.35456711 14.78125 34.97265625 C13.91070984 34.38828041 13.91070984 34.38828041 13.02258301 33.792099 C11.17874229 32.55325883 9.3392225 31.30818374 7.5 30.0625 C5.65999429 28.82159397 3.81910149 27.58202569 1.97741699 26.34361267 C0.30556513 25.21857659 -1.36388626 24.08997571 -3.03320312 22.96118164 C-5.65056516 21.23099161 -8.29504263 19.58863072 -11 18 C-9.48103632 13.56829827 -7.07360191 9.96975924 -4.375 6.1875 C-3.95476562 5.59001953 -3.53453125 4.99253906 -3.1015625 4.37695312 C-2.07220272 2.91479435 -1.0367177 1.45695101 0 0 Z " fill="#467355" transform="translate(219,262)"/>
<path d="M0 0 C0.66 0 1.32 0 2 0 C2.23074219 0.86882812 2.46148438 1.73765625 2.69921875 2.6328125 C5.44956342 12.96332602 5.44956342 12.96332602 12.88671875 20.16796875 C16.77790128 22.22103077 20.78359086 23.73507726 25 25 C22.72965952 26.15700044 20.44847025 27.24878788 18.125 28.296875 C9.98273733 31.92453388 9.98273733 31.92453388 5 39 C3.85791302 42.63757217 2.87167814 46.28876427 2 50 C1.34 50 0.68 50 0 50 C-0.24234375 49.11957031 -0.4846875 48.23914063 -0.734375 47.33203125 C-1.06953125 46.17058594 -1.4046875 45.00914062 -1.75 43.8125 C-2.07484375 42.66394531 -2.3996875 41.51539063 -2.734375 40.33203125 C-5.01351047 34.33171472 -8.18292559 31.46864169 -13.828125 28.84765625 C-17.16524483 27.5452192 -20.49882084 26.75025268 -24 26 C-23 24 -23 24 -20.92578125 23.2890625 C-20.06339844 23.06992188 -19.20101562 22.85078125 -18.3125 22.625 C-12.16534115 20.87745056 -7.52314644 18.47112952 -4 13 C-3.19667198 10.77539933 -2.47126679 8.52160964 -1.8125 6.25 C-1.46832031 5.07953125 -1.12414062 3.9090625 -0.76953125 2.703125 C-0.38861328 1.36507812 -0.38861328 1.36507812 0 0 Z " fill="#7BAB87" transform="translate(593,223)"/>
<path d="M0 0 C2.19186097 2.19186097 2.53181928 3.33358668 3.375 6.25 C5.81227556 13.70519584 8.89264472 17.37470414 15.78125 21.01953125 C17.85216459 21.93467133 19.78971137 22.53282536 22 23 C22 23.66 22 24.32 22 25 C21.33613281 25.24234375 20.67226563 25.4846875 19.98828125 25.734375 C19.10527344 26.06953125 18.22226562 26.4046875 17.3125 26.75 C16.00732422 27.23726562 16.00732422 27.23726562 14.67578125 27.734375 C9.02292317 30.40813561 6.49039723 33.22342005 4.3125 39.0625 C3.05477557 42.37682919 1.97367107 45.03949339 0 48 C-0.23074219 47.20335937 -0.46148437 46.40671875 -0.69921875 45.5859375 C-3.31798352 36.84234604 -3.31798352 36.84234604 -9 30 C-13.49465944 27.7417077 -18.10641131 26.14146064 -23 25 C-23 24.34 -23 23.68 -23 23 C-21.80375 22.731875 -20.6075 22.46375 -19.375 22.1875 C-13.61779255 20.71519827 -8.95653127 18.84580676 -5.16796875 14.02734375 C-2.66676785 9.68579437 -1.38722207 4.78940357 0 0 Z " fill="#86E8AA" transform="translate(502,116)"/>
<path d="M0 0 C2.14237339 2.14237339 2.76894656 3.65408452 3.875 6.4375 C5.41302348 9.9659068 6.44028173 12.22014086 10 14 C11.98014432 14.72351427 13.97821315 15.40265389 16 16 C14 18 14 18 10.625 19.25 C6.61826208 20.91112676 4.98586296 23.10465343 3 27 C2.20929452 30.23038842 2.20929452 30.23038842 2 33 C1.34 33 0.68 33 0 33 C-0.15855469 32.39671875 -0.31710937 31.7934375 -0.48046875 31.171875 C-1.99788042 25.97411126 -3.14617687 22.86816822 -8 20 C-10.30935298 18.89573558 -12.61303041 17.93606651 -15 17 C-14.46375 16.7525 -13.9275 16.505 -13.375 16.25 C-6.71680138 12.74568494 -3.36255026 9.8007981 -0.8125 2.6875 C-0.544375 1.800625 -0.27625 0.91375 0 0 Z " fill="#81DCA2" transform="translate(641,181)"/>
<path d="M0 0 C0.33 0 0.66 0 1 0 C1.66 3.63 2.32 7.26 3 11 C2.01 11.495 2.01 11.495 1 12 C-0.32 9.03 -1.64 6.06 -3 3 C-2.01 2.01 -1.02 1.02 0 0 Z " fill="#80DC9D" transform="translate(367,261)"/>
<path d="M0 0 C0.66 0.33 1.32 0.66 2 1 C-0.64 3.64 -3.28 6.28 -6 9 C-6.66 8.67 -7.32 8.34 -8 8 C-3.375 2.25 -3.375 2.25 0 0 Z " fill="#D8F2E0" transform="translate(621,140)"/>
<path d="M0 0 C2.72426311 2.35277269 3.8141763 4.62496331 5 8 C3.68 7.34 2.36 6.68 1 6 C1 5.34 1 4.68 1 4 C0.01 3.67 -0.98 3.34 -2 3 C-1.34 2.67 -0.68 2.34 0 2 C0 1.34 0 0.68 0 0 Z " fill="#9EEAB9" transform="translate(362,333)"/>
<path d="M0 0 C3.45925163 1.2491742 6.14693203 2.67527795 9 5 C7.68 5.33 6.36 5.66 5 6 C3.35 4.02 1.7 2.04 0 0 Z " fill="#A0EFBF" transform="translate(178,170)"/>
</svg>
